<?xml version="1.0" standalone="no"?>
<!DOCTYPE svg PUBLIC "-//W3C//DTD SVG 1.1//EN" "http://www.w3.org/Graphics/SVG/1.1/DTD/svg11.dtd" >
<svg>
<metadata>
Created by FontForge 20110222 at Fri Sep  5 11:16:36 2014
 By deploy user
Digitized data copyright (C) 1991-1997 The Monotype Corporation. All rights reserved. Gill Sans is a trademark of The Monotype Corporation which may be registered in certain jurisdicions.
</metadata>
<defs>
<font id="GillSansMT-ExtraCondensedBold" horiz-adv-x="661" >
  <font-face 
    font-family="Gill Sans MT Ext Condensed Bold"
    font-weight="400"
    font-stretch="extra-condensed"
    units-per-em="2048"
    panose-1="2 11 9 2 2 1 4 2 2 3"
    ascent="1638"
    descent="-410"
    x-height="1255"
    cap-height="1630"
    bbox="-301 -470 2044 2046"
    underline-thickness="130"
    underline-position="-212"
    unicode-range="U+0020-F002"
  />
<missing-glyph horiz-adv-x="1536" 
d="M0 0v1280h1024v-1280h-1024zM32 32h960v1216h-960v-1216z" />
    <glyph glyph-name=".notdef" horiz-adv-x="1536" 
d="M0 0v1280h1024v-1280h-1024zM32 32h960v1216h-960v-1216z" />
    <glyph glyph-name=".null" horiz-adv-x="0" 
 />
    <glyph glyph-name="nonmarkingreturn" horiz-adv-x="331" 
 />
    <glyph glyph-name="space" unicode=" " horiz-adv-x="331" 
 />
    <glyph glyph-name="exclam" unicode="!" horiz-adv-x="277" 
d="M115 485l-72 632q-12 129 -12 220q0 186 43 256q27 44 71 44q43 0 71 -45q43 -68 43 -239q0 -175 -50 -578q-22 -177 -31 -290h-63zM146 228q49 0 83.5 -35t34.5 -85t-34.5 -85.5t-83.5 -35.5t-84 35.5t-35 85.5t35 85t84 35z" />
    <glyph glyph-name="quotedbl" unicode="&#x22;" horiz-adv-x="512" 
d="M303 1643h175v-242l-40 -279h-91l-44 279v242zM33 1643h175v-242l-41 -279h-91l-43 279v242z" />
    <glyph glyph-name="numbersign" unicode="#" horiz-adv-x="1024" 
d="M419 1592h133l-89 -430h227l88 430h137l-87 -430h176v-134h-202l-79 -382h281v-132h-306l-90 -429h-138l88 429h-224l-87 -429h-136l89 429h-179v132h205l78 382h-283v134h313zM441 1028l-78 -382h223l79 382h-224z" />
    <glyph glyph-name="dollar" unicode="$" horiz-adv-x="576" 
d="M254 1643h52v-80q47 0 88 -10t105 -40l23 -10v-203q-73 52 -116 68t-100 18v-399q135 -208 185 -350.5t50 -289.5q0 -164 -65 -252.5t-170 -107.5v-159h-52v159q-108 0 -214 77v210q86 -68 126.5 -87t87.5 -24v461q-17 32 -45 82q-105 182 -139.5 290t-34.5 211
q0 101 27.5 179t73 117t118.5 60v80zM254 1372q-31 -19 -50 -56t-19 -74t17.5 -78.5t51.5 -87.5v296zM306 531v-360q78 39 78 137q0 48 -23 115.5t-55 107.5z" />
    <glyph glyph-name="percent" unicode="%" horiz-adv-x="939" 
d="M691 1643h91l-520 -1676h-95zM242 1643q84 0 139 -75q75 -106 75 -330q0 -217 -75 -324q-53 -74 -133 -74q-82 0 -135 76q-78 111 -78 337q0 132 34.5 228.5t88.5 135.5q36 26 84 26zM247 1497q-21 -31 -31 -73q-13 -56 -13 -172q0 -201 44 -261q43 53 43 252
q0 126 -13 182q-9 41 -30 72zM699 772q84 0 138 -76q76 -106 76 -330q0 -218 -76 -325q-52 -75 -133 -75t-135 77q-77 110 -77 336q0 206 78 317q54 76 129 76zM704 623q-21 -30 -32.5 -79t-11.5 -165q0 -202 44 -261q43 53 43 251q0 126 -13 183q-9 41 -30 71z" />
    <glyph glyph-name="ampersand" unicode="&#x26;" horiz-adv-x="704" 
d="M151 788q-60 162 -84.5 275t-24.5 215q0 176 77.5 270.5t173.5 94.5q90 0 157 -80t67 -221q0 -105 -34.5 -220.5t-118.5 -276.5l83 -214q24 90 32 249h190q-3 -114 -35.5 -266.5t-79.5 -269.5l128 -344h-235l-35 96q-88 -109 -180 -109q-80 0 -145.5 83t-65.5 251
q0 112 30.5 221.5t99.5 245.5zM286 1435q-50 -64 -50 -161q0 -101 43 -204q46 86 46 210q0 99 -39 155zM245 542q-14 -38 -21 -79t-7 -85q0 -78 22 -112q16 -23 39 -23q33 0 60 57z" />
    <glyph glyph-name="quotesingle" unicode="'" horiz-adv-x="512" 
d="M169 1643h175v-242l-41 -279h-91l-43 279v242z" />
    <glyph glyph-name="parenleft" unicode="(" horiz-adv-x="405" 
d="M376 1643v-96q-43 -67 -61 -121q-29 -93 -42 -228q-17 -176 -17 -381q0 -222 16 -573q6 -108 15 -158q13 -70 39 -135q14 -38 50 -93v-97q-87 78 -126 139q-71 110 -119 282q-64 228 -64 520q0 238 48 459q41 184 122 322q45 76 139 160z" />
    <glyph glyph-name="parenright" unicode=")" horiz-adv-x="405" 
d="M29 -239v97q43 66 61 121q29 93 42 228q17 176 17 381q0 222 -17 573q-5 108 -14 157q-13 71 -39 136q-15 38 -50 93v96q87 -78 126 -138q71 -111 119 -282q64 -229 64 -521q0 -238 -48 -458q-41 -185 -122 -323q-45 -75 -139 -160z" />
    <glyph glyph-name="asterisk" unicode="*" horiz-adv-x="917" 
d="M447 1281l-71 295q-5 21 -5 34q0 16 14 24.5t89 8.5q50 0 64.5 -10.5t14.5 -30.5q0 -14 -5 -34l-73 -287q20 -7 35 -26l214 206q32 31 51 31q24 0 56 -57.5t32 -81.5q0 -14 -11 -25t-46 -20l-279 -74l-1 -10q0 -10 1 -19v-10l270 -81q42 -13 54 -25t12 -26q0 -28 -51 -98
q-25 -34 -43 -34q-19 0 -45 26l-214 212q-11 -9 -35 -19l73 -300q4 -13 4 -25q0 -20 -14 -30t-63 -10q-70 0 -86.5 10.5t-16.5 27.5q0 11 4 27l71 300q-14 6 -33 19l-217 -206q-26 -25 -44 -25q-15 0 -31.5 19t-56.5 102q-3 10 -3 18q0 12 8.5 22t27.5 15l301 81
q-2 13 -2 24q0 7 2 15l-291 85q-31 9 -40 18.5t-9 22.5q0 28 53 104q22 33 38 33q24 0 77 -54l187 -188q18 18 33 26z" />
    <glyph glyph-name="plus" unicode="+" horiz-adv-x="1024" 
d="M47 899h381v402h168v-402h381v-168h-381v-402h-168v402h-381v168z" />
    <glyph glyph-name="comma" unicode="," horiz-adv-x="277" 
d="M128 -13q-48 16 -72.5 49t-24.5 73q0 49 34.5 83t85.5 34t85.5 -36.5t34.5 -100.5q0 -90 -57.5 -178t-182.5 -150v88q73 48 97 138z" />
    <glyph glyph-name="hyphen" unicode="-" horiz-adv-x="448" 
d="M29 721h398v-186h-398v186z" />
    <glyph glyph-name="hyphen" unicode="&#xad;" horiz-adv-x="448" 
d="M29 721h398v-186h-398v186z" />
    <glyph glyph-name="period" unicode="." horiz-adv-x="277" 
d="M138 227q50 0 85 -35t35 -85q0 -49 -35 -84.5t-85 -35.5t-85 35.5t-35 84.5q0 50 35 85t85 35z" />
    <glyph glyph-name="slash" unicode="/" horiz-adv-x="512" 
d="M1 -34l425 1622h144l-424 -1622h-145z" />
    <glyph glyph-name="zero" unicode="0" 
d="M38 811q0 510 119 710q72 122 173 122q97 0 172 -125q121 -204 121 -710q0 -497 -119 -699q-72 -122 -166 -122q-106 0 -178 120q-122 204 -122 704zM332 1390q-24 -35 -37 -85t-20 -214q-10 -269 -10 -373q0 -257 24 -371q14 -66 43 -110q24 43 36 95t18 203
q9 247 9 354q0 258 -21 374q-14 74 -42 127z" />
    <glyph glyph-name="one" unicode="1" horiz-adv-x="384" 
d="M309 1643v-1643h-216v1276h-75v28z" />
    <glyph glyph-name="two" unicode="2" horiz-adv-x="491" 
d="M33 1557q58 51 96.5 68.5t83.5 17.5q109 0 182.5 -90.5t73.5 -295.5q0 -153 -31 -367q-36 -250 -129 -674h175v-216h-451q99 371 161 768q48 303 48 453q0 97 -30 136.5t-74 39.5q-57 0 -105 -52v212z" />
    <glyph glyph-name="three" unicode="3" horiz-adv-x="469" 
d="M32 1617q51 26 108 26q116 0 206.5 -110t90.5 -320q0 -266 -152 -375q76 -59 114 -135q50 -100 50 -239q0 -149 -53 -256.5t-156 -164.5q-75 -42 -208 -56v228q89 12 137.5 73.5t48.5 177.5q0 131 -50.5 193.5t-135.5 67.5v181q55 -1 93.5 26.5t62.5 99.5t24 158
q0 133 -36 182.5t-87 49.5q-22 0 -57 -13v206z" />
    <glyph glyph-name="four" unicode="4" horiz-adv-x="704" 
d="M441 1643h137v-945h113v-204h-113v-494h-204v494h-348v115zM374 1041l-140 -343h140v343z" />
    <glyph glyph-name="five" unicode="5" horiz-adv-x="469" 
d="M48 1630h413v-213h-193v-512q88 -69 132 -158t44 -232q0 -136 -47 -253q-35 -86 -100.5 -154t-146.5 -101q-48 -20 -114 -20v231q73 20 113 71q67 84 67 230q0 124 -45 191t-123 88v832z" />
    <glyph glyph-name="six" unicode="6" horiz-adv-x="640" 
d="M494 1643l131 -179q-82 -105 -141.5 -212t-111.5 -245q120 -101 179.5 -228t59.5 -296q0 -149 -43 -268.5t-109 -173.5t-131 -54q-71 0 -137 59t-106.5 192.5t-40.5 263.5q0 280 121.5 590t328.5 551zM298 770q-35 -113 -35 -265q0 -185 68 -265q64 60 64 236
q0 114 -25 180.5t-72 113.5z" />
    <glyph glyph-name="seven" unicode="7" horiz-adv-x="448" 
d="M24 1630h412l-188 -1643l-213 28l158 1400h-169v215z" />
    <glyph glyph-name="eight" unicode="8" horiz-adv-x="597" 
d="M160 831q-125 133 -125 367q0 176 70.5 310.5t188.5 134.5q66 0 129.5 -50.5t101 -159.5t37.5 -238q0 -227 -125 -364q67 -79 100.5 -168.5t33.5 -213.5q0 -178 -74.5 -320t-194.5 -142q-64 0 -129 52t-105.5 165.5t-40.5 244.5q0 130 34.5 220t98.5 162zM298 1409
q-52 -76 -52 -223q0 -149 52 -223q54 68 54 213q0 79 -15.5 141.5t-38.5 91.5zM298 700q-52 -68 -52 -231q0 -160 52 -224q55 58 55 228q0 150 -55 227z" />
    <glyph glyph-name="nine" unicode="9" horiz-adv-x="640" 
d="M160 -13l-129 180q152 189 254 459q-115 95 -178 222t-63 302q0 147 42.5 266.5t108.5 173t131 53.5q73 0 139.5 -60t106 -195t39.5 -263q0 -186 -64 -412.5t-197 -460.5q-75 -133 -190 -265zM356 864q35 103 35 261q0 186 -67 266q-62 -52 -62 -235q0 -111 23 -175.5
t71 -116.5z" />
    <glyph glyph-name="colon" unicode=":" horiz-adv-x="277" 
d="M138 891q50 0 85 -35t35 -85q0 -49 -35 -84t-85 -35q-49 0 -84 35t-35 84q0 50 35 85t84 35zM138 226q50 0 85 -35t35 -84q0 -50 -35 -85t-85 -35q-49 0 -84 35t-35 85q0 49 35 84t84 35z" />
    <glyph glyph-name="semicolon" unicode=";" horiz-adv-x="277" 
d="M140 892q50 0 85 -35t35 -85q0 -49 -35 -84t-85 -35q-49 0 -84 35t-35 84q0 50 35 85t84 35zM118 -13q-47 16 -72 49t-25 74q0 49 35 83.5t86 34.5t85.5 -37t34.5 -101q0 -91 -58 -179.5t-182 -149.5v89q72 48 96 137z" />
    <glyph glyph-name="less" unicode="&#x3c;" horiz-adv-x="1024" 
d="M920 1315v-175l-648 -324l648 -322v-175l-816 421v155z" />
    <glyph glyph-name="equal" unicode="=" horiz-adv-x="1024" 
d="M47 1123h931v-167h-931v167zM47 680h931v-167h-931v167z" />
    <glyph glyph-name="greater" unicode="&#x3e;" horiz-adv-x="1024" 
d="M104 1315l816 -420v-155l-816 -421v175l648 322l-648 324v175z" />
    <glyph glyph-name="question" unicode="?" horiz-adv-x="341" 
d="M21 1601q61 42 124 42q76 0 127.5 -60.5t51.5 -183.5q0 -129 -68 -391q-49 -190 -70 -327q-11 -75 -12 -198h-86q-5 135 -5 235q0 197 33 438q16 118 16 159q0 52 -16 73t-39 21q-28 0 -56 -26v218zM166 227q50 0 85 -35t35 -85t-35 -85t-85 -35q-49 0 -84 35t-35 85
t35 85t84 35z" />
    <glyph glyph-name="at" unicode="@" horiz-adv-x="1643" 
d="M1051 1297h155l-108 -645q-24 -139 -24 -181q0 -27 14.5 -41.5t38.5 -14.5q55 0 132.5 56t132 178t54.5 267q0 166 -69 302.5t-206.5 212t-296.5 75.5q-177 0 -337 -93t-246 -269.5t-86 -392.5q0 -208 82.5 -368t240 -247t338.5 -87q110 0 218.5 31.5t183.5 75.5
q51 30 118 92h176q-64 -88 -120 -133q-106 -85 -252.5 -141.5t-326.5 -56.5q-344 0 -569 232t-225 613q0 396 231 638.5t571 242.5q205 0 372.5 -87t253 -255.5t85.5 -365.5q0 -173 -55.5 -305t-130 -210t-163 -125t-169.5 -47q-60 0 -99.5 34.5t-48.5 102.5
q-61 -68 -123 -102.5t-125 -34.5q-112 0 -204 111t-92 316q0 199 66 358.5t157 226.5t184 67q79 0 135.5 -39.5t111.5 -134.5zM539 659q0 -143 49.5 -205t114.5 -62q54 0 112.5 51.5t97.5 185.5q53 176 53 335q0 116 -44 168t-112 52q-64 0 -126 -54t-103.5 -191.5
t-41.5 -279.5z" />
    <glyph glyph-name="A" unicode="A" horiz-adv-x="640" 
d="M207 1643h239l172 -1643h-222l-11 293h-122l-22 -293h-219zM331 1373h-18q-10 -342 -15 -438l-23 -429h94l-15 331z" />
    <glyph glyph-name="B" unicode="B" 
d="M55 1630h139q189 0 300 -118.5t111 -330.5q0 -224 -145 -352q80 -57 118 -128q55 -101 55 -243q0 -141 -53 -251q-40 -82 -133.5 -144.5t-224.5 -62.5h-167v1630zM275 1396v-457q109 50 109 227q0 106 -41 174q-30 48 -68 56zM275 702v-468q55 17 92 74.5t37 150.5
q0 81 -34.5 146t-94.5 97z" />
    <glyph glyph-name="C" unicode="C" horiz-adv-x="533" 
d="M509 22q-42 -35 -103 -35q-168 0 -268.5 221t-100.5 618q0 444 148 671q96 146 216 146q55 0 108 -31v-207q-34 18 -65 18q-61 0 -104 -76q-74 -132 -74 -494q0 -382 49.5 -507.5t131.5 -125.5q31 0 62 20v-218z" />
    <glyph glyph-name="D" unicode="D" 
d="M55 1630h65q124 0 213 -44t154 -145.5t102 -255t37 -365.5q0 -217 -38 -386.5t-111 -273.5q-54 -77 -116 -112q-84 -48 -204 -48h-102v1630zM275 1357v-1091q36 27 52 55q33 58 51 161.5t18 337.5q0 192 -20 324q-14 96 -47 154q-17 31 -54 59z" />
    <glyph glyph-name="E" unicode="E" horiz-adv-x="448" 
d="M54 1630h375v-216h-155v-514h155v-212h-155v-474h155v-214h-375v1630z" />
    <glyph glyph-name="F" unicode="F" horiz-adv-x="448" 
d="M55 1630h375v-214h-155v-515h155v-211h-155v-690h-220v1630z" />
    <glyph glyph-name="G" unicode="G" 
d="M624 0q-48 -13 -130 -13q-107 0 -168 29q-85 39 -148.5 135.5t-102 262.5t-38.5 388q0 393 112 617t292 224q41 0 77.5 -11t105.5 -49v-255q-75 96 -151 96q-98 0 -153 -148t-55 -440q0 -181 19 -320t52 -209q25 -52 72 -92v386h-87v212h303v-813z" />
    <glyph glyph-name="H" unicode="H" 
d="M55 1630h220v-730h112v730h220v-1630h-220v688h-112v-688h-220v1630z" />
    <glyph glyph-name="I" unicode="I" horiz-adv-x="320" 
d="M50 1630h220v-1630h-220v1630z" />
    <glyph glyph-name="J" unicode="J" horiz-adv-x="363" 
d="M93 1630h220v-1520q0 -132 -39 -210.5t-115 -113.5q-54 -25 -156 -25v239q47 1 68.5 24.5t21.5 72.5v1533z" />
    <glyph glyph-name="K" unicode="K" 
d="M55 1630h220v-719q39 39 54 71q33 71 49 187t16 323v138h221v-248q0 -184 -46 -336q-31 -101 -94 -184q66 -70 103 -203t37 -417v-242h-221v208q0 188 -17.5 323.5t-50.5 189.5q-17 30 -51 44v-765h-220v1630z" />
    <glyph glyph-name="L" unicode="L" horiz-adv-x="427" 
d="M55 1630h220v-1413h128v-217h-348v1630z" />
    <glyph glyph-name="M" unicode="M" horiz-adv-x="917" 
d="M209 1630h179l71 -901l81 901h179l160 -1630h-218l-52 792l-118 -792h-74l-108 792l-59 -792h-211z" />
    <glyph glyph-name="N" unicode="N" 
d="M59 1630h201l137 -850h13l-25 850h218v-1630h-193l-150 904h-8l24 -904h-217v1630z" />
    <glyph glyph-name="O" unicode="O" 
d="M37 794q0 472 101 685q78 164 194 164q54 0 106 -40t96 -143.5t67 -277t23 -370.5q0 -498 -121 -704q-71 -121 -167 -121q-135 0 -209 192q-90 237 -90 615zM332 1392q-26 -44 -39 -96.5t-19 -188.5q-9 -214 -9 -337q0 -277 22 -399q14 -78 45 -137q29 58 41 111.5
t16 188.5q7 250 7 365q0 257 -21 368q-14 74 -43 125z" />
    <glyph glyph-name="P" unicode="P" horiz-adv-x="640" 
d="M55 1630h70q178 0 272.5 -52t155.5 -165.5t61 -256.5q0 -121 -44 -225.5t-130 -173.5q-60 -49 -165 -81v-676h-220v1630zM275 1388v-477q110 73 110 240q0 88 -27.5 147t-82.5 90z" />
    <glyph glyph-name="Q" unicode="Q" 
d="M541 -201h-16q-85 0 -182 82q-153 129 -229.5 336.5t-76.5 584.5q0 511 123 722q70 119 171 119q126 0 198 -174q95 -231 95 -654q0 -195 -22 -358t-64 -271q-26 -65 -75 -130q60 -57 117 -57q10 0 24 1zM333 1395q-26 -43 -38.5 -93.5t-18.5 -218.5q-10 -272 -10 -378
q0 -241 22 -346q14 -69 45 -119q28 53 41 133q23 144 23 475q0 286 -19 409q-13 80 -45 138z" />
    <glyph glyph-name="R" unicode="R" horiz-adv-x="683" 
d="M55 1630h118q207 0 322.5 -119t115.5 -333q0 -121 -47 -215q-33 -67 -103 -128q51 -56 75 -106q50 -106 79.5 -272t50.5 -457h-222q-14 364 -66 534q-39 128 -103 180v-714h-220v1630zM293 1396v-470q53 23 83.5 85.5t30.5 149.5q0 91 -30 151.5t-84 83.5z" />
    <glyph glyph-name="S" unicode="S" horiz-adv-x="491" 
d="M26 237q51 -22 94 -22q59 0 93.5 38t34.5 112q0 59 -13 113q-25 107 -92 277.5t-99 309.5q-18 79 -18 176q0 210 81.5 306t212.5 96q61 0 140 -25v-217q-46 22 -84 22q-56 0 -95 -46t-39 -134q0 -58 13 -114q25 -105 84 -261q74 -195 108 -349q17 -78 17 -167
q0 -176 -85.5 -270.5t-213.5 -94.5q-56 0 -139 26v224z" />
    <glyph glyph-name="T" unicode="T" horiz-adv-x="576" 
d="M24 1630h529v-213h-154v-1417h-220v1417h-155v213z" />
    <glyph glyph-name="U" unicode="U" 
d="M59 1630h220v-1188q0 -149 55 -200q48 64 48 180v1208h221v-1188q0 -224 -99 -356q-75 -99 -170 -99q-65 0 -130.5 50.5t-99.5 147.5q-45 132 -45 257v1188z" />
    <glyph glyph-name="V" unicode="V" horiz-adv-x="619" 
d="M13 1630h225l79 -941l65 941h224l-196 -1643h-184z" />
    <glyph glyph-name="W" unicode="W" horiz-adv-x="1003" 
d="M26 1630h221l69 -948l90 948h194l91 -961l69 961h217l-196 -1643h-181l-97 906l-97 -906h-181z" />
    <glyph glyph-name="X" unicode="X" horiz-adv-x="640" 
d="M25 1630h223l72 -391l74 391h222l-184 -821l184 -809h-222l-74 387l-72 -387h-223l185 809z" />
    <glyph glyph-name="Y" unicode="Y" horiz-adv-x="640" 
d="M22 1630h224l75 -415l77 415h221l-190 -852v-778h-220v778z" />
    <glyph glyph-name="Z" unicode="Z" horiz-adv-x="448" 
d="M26 1630h396l-154 -1415h154v-215h-396l155 1418h-155v212z" />
    <glyph glyph-name="bracketleft" unicode="[" horiz-adv-x="384" 
d="M36 1643h321v-125h-140v-1634h140v-123h-321v1882z" />
    <glyph glyph-name="backslash" unicode="\" horiz-adv-x="512" 
d="M367 -34l-425 1622h145l424 -1622h-144z" />
    <glyph glyph-name="bracketright" unicode="]" horiz-adv-x="384" 
d="M41 1643h323v-1882h-317v122h135v1635h-141v125z" />
    <glyph glyph-name="asciicircum" unicode="^" horiz-adv-x="1024" 
d="M270 842h-185l353 801h145l355 -801h-181l-247 597z" />
    <glyph glyph-name="underscore" unicode="_" horiz-adv-x="1024" 
d="M-12 -407v130h1048v-130h-1048z" />
    <glyph glyph-name="grave" unicode="`" horiz-adv-x="683" 
d="M368 1643l73 -304h-114l-154 304h195z" />
    <glyph glyph-name="a" unicode="a" horiz-adv-x="576" 
d="M341 94q-63 -107 -130 -107t-111 76q-69 119 -69 482v151q0 295 125 452q96 120 259 120h89v-941q0 -87 12.5 -122.5t36.5 -56.5l-110 -161q-34 10 -56 31.5t-46 75.5zM314 1027q-47 -25 -69.5 -83.5t-22.5 -234.5v-230q0 -219 30 -283q13 -27 32 -27q20 0 30 13v845z
" />
    <glyph glyph-name="b" unicode="b" horiz-adv-x="555" 
d="M52 1630h191v-398q32 36 86 36q47 0 88.5 -32.5t66.5 -109.5q39 -114 39 -264v-248q0 -312 -99.5 -463t-275.5 -151h-96v1630zM243 1065v-836q41 14 61 52q28 51 28 161v406q0 158 -23 200q-14 26 -41 26q-13 0 -25 -9z" />
    <glyph glyph-name="c" unicode="c" horiz-adv-x="405" 
d="M386 20q-12 -10 -44 -21.5t-57 -11.5q-61 0 -115.5 41.5t-83.5 126.5q-55 157 -55 397v183q0 299 96 437q67 96 174 96q32 0 85 -13v-194l-5 3q-22 14 -44 14q-45 0 -73 -48q-42 -70 -42 -295v-167q0 -276 37 -345q24 -44 62 -44q30 0 65 25v-184z" />
    <glyph glyph-name="d" unicode="d" horiz-adv-x="576" 
d="M314 1630h190v-1327q0 -108 46 -154l-110 -162q-75 23 -103 111q-45 -71 -70.5 -91t-53.5 -20q-68 0 -114 74q-68 111 -68 404v224q0 320 100 469q69 103 183 110v362zM314 1038q-37 -11 -57 -53q-35 -72 -35 -234v-260q0 -231 27 -290q13 -27 33 -27q11 0 20 5.5
t12 11.5v847z" />
    <glyph glyph-name="e" unicode="e" horiz-adv-x="533" 
d="M492 6q-45 -19 -103 -19q-144 0 -251 140t-107 496v144q0 288 86 415q58 86 152 86q116 0 174.5 -102.5t58.5 -247.5q0 -174 -70.5 -277t-198.5 -143q2 -157 67 -244q47 -62 111 -62q29 0 81 25v-211zM273 1070q-26 -40 -34 -70q-15 -57 -15 -133v-163q43 19 66.5 66
t23.5 143q0 105 -41 157z" />
    <glyph glyph-name="f" unicode="f" horiz-adv-x="405" 
d="M386 1643v-181q-41 -7 -59 -30q-26 -35 -26 -81v-96h85v-160h-85v-999q0 -126 -22.5 -189.5t-84.5 -103.5t-163 -42v206q39 0 56 25q23 33 23 136v967h-79v160h79v85q0 104 36 176t100 103q46 23 140 24z" />
    <glyph glyph-name="g" unicode="g" horiz-adv-x="555" 
d="M504 1268v-1238q0 -123 -70.5 -196t-184.5 -73q-46 0 -86 12.5t-107 48.5l60 165q64 -38 109 -38q43 0 65.5 22t22.5 59v54q-47 -63 -101 -63q-64 0 -107 76q-74 130 -74 489q0 261 46.5 403t133 210.5t206.5 68.5h87zM313 1042q-41 -26 -64 -84t-23 -198v-279
q0 -189 24 -237q14 -27 37 -27q19 0 26 9v816z" />
    <glyph glyph-name="h" unicode="h" horiz-adv-x="576" 
d="M52 1630h191v-436q33 44 59.5 59t66.5 15q67 0 111 -55t44 -180v-1033h-190v1021q0 30 -12.5 44.5t-29.5 14.5q-23 0 -49 -39v-1041h-191v1630z" />
    <glyph glyph-name="i" unicode="i" horiz-adv-x="277" 
d="M138 1643q47 0 79.5 -33t32.5 -79t-32.5 -79t-79.5 -33q-46 0 -78.5 33t-32.5 78q0 46 33.5 79.5t77.5 33.5zM43 1255h191v-1255h-191v1255z" />
    <glyph glyph-name="j" unicode="j" horiz-adv-x="320" 
d="M158 1643q46 0 78.5 -32.5t32.5 -78.5t-32.5 -78.5t-78.5 -32.5t-78.5 32.5t-32.5 77.5q0 46 33 79t78 33zM67 1255h191v-1239q0 -118 -86 -192q-66 -58 -180 -63v195q31 4 49 27q26 33 26 78v1194z" />
    <glyph glyph-name="k" unicode="k" horiz-adv-x="555" 
d="M52 1630h191v-851q28 28 47 85.5t19 120.5v270h191v-244q0 -117 -33 -215q-23 -68 -61 -93q31 -26 45 -51q29 -51 46 -126q24 -108 24 -259v-267h-190v256q0 188 -33 276q-18 47 -55 70v-602h-191v1630z" />
    <glyph glyph-name="l" unicode="l" horiz-adv-x="320" 
d="M52 1630h191v-1373q0 -61 13 -87t46 -43l-146 -140q-52 18 -78 57t-26 112v1474z" />
    <glyph glyph-name="m" unicode="m" horiz-adv-x="853" 
d="M230 1175q38 54 69 73.5t72 19.5q85 0 135 -93q54 63 76 75q29 18 66 18q64 0 103 -49q50 -63 50 -180v-1039h-190v1016q0 33 -12 48t-29 15q-11 0 -23 -10t-25 -30v-1039h-191v1016q0 33 -13 50q-10 13 -26 13q-12 0 -24.5 -10t-25.5 -30v-1039h-190v1058q0 49 -32 76
l112 134q72 -26 98 -93z" />
    <glyph glyph-name="n" unicode="n" horiz-adv-x="576" 
d="M137 1268q59 -19 96 -88q44 55 72 71.5t66 16.5q64 0 108.5 -54.5t44.5 -165.5v-1048h-191v1030q0 23 -13 37t-31 14q-11 0 -22 -8t-21 -25v-1048h-191v1030q0 73 -38 101z" />
    <glyph glyph-name="o" unicode="o" horiz-adv-x="533" 
d="M270 1268q83 0 141 -96q95 -158 95 -545q0 -385 -96 -545q-57 -95 -140 -95t-141 96q-95 157 -95 544q0 386 96 545q57 96 140 96zM270 1049q-16 -20 -25 -53q-7 -24 -13 -161q-9 -219 -9 -288q0 -284 47 -343q15 17 24 46q6 20 13 169q10 223 10 291q0 287 -47 339z" />
    <glyph glyph-name="p" unicode="p" horiz-adv-x="555" 
d="M137 1268q47 -19 69 -38.5t35 -49.5q53 88 103 88q63 0 107 -77q73 -125 73 -462v-143q0 -322 -101 -480q-68 -107 -182 -119v-226h-190v1285q0 52 -42 85zM241 1071v-849q36 8 57 50q36 75 36 281v262q0 183 -29 240q-15 29 -37 29q-14 0 -27 -13z" />
    <glyph glyph-name="q" unicode="q" horiz-adv-x="555" 
d="M507 1268v-1507h-191v263q-52 -37 -88 -37q-76 0 -127 84q-70 115 -70 485q0 292 38.5 418t103 189t144.5 87q55 18 190 18zM316 1029q-45 -22 -67.5 -80.5t-22.5 -249.5v-254q0 -178 28 -234q15 -28 37 -28q18 0 25 11v835z" />
    <glyph glyph-name="r" unicode="r" horiz-adv-x="427" 
d="M243 1087q11 17 22 50q31 85 72 112q28 19 81 19v-237q-73 -19 -115 -74q-60 -79 -60 -134v-823h-191v1031q0 60 -43 97l115 140q58 -22 82.5 -56.5t36.5 -124.5z" />
    <glyph glyph-name="s" unicode="s" horiz-adv-x="384" 
d="M20 208q35 -37 79 -37q40 0 65 26.5t25 74.5q0 89 -76 311q-91 267 -91 404q0 148 54.5 214.5t140.5 66.5q53 0 127 -41v-174q-39 33 -70 33t-53.5 -25t-22.5 -71q0 -85 72 -299q93 -278 93 -421q0 -146 -59.5 -214.5t-158.5 -68.5q-63 0 -125 34v187z" />
    <glyph glyph-name="t" unicode="t" horiz-adv-x="427" 
d="M250 1457h55v-202h91v-164h-91v-860q0 -30 15 -46.5t35 -16.5q18 0 41 15v-162q-50 -34 -100 -34q-81 0 -131 56.5t-50 159.5v888h-97v57q85 86 232 309z" />
    <glyph glyph-name="u" unicode="u" horiz-adv-x="576" 
d="M52 1255h191v-1026q0 -27 10.5 -39.5t27.5 -12.5q20 0 34.5 14.5t14.5 31.5v1032h191v-1053q0 -38 37 -77l-116 -138q-40 14 -62.5 34.5t-35.5 55.5q-42 -54 -73 -72t-70 -18q-63 0 -97 40q-52 63 -52 147v1081z" />
    <glyph glyph-name="v" unicode="v" horiz-adv-x="512" 
d="M306 1255h188l-148 -1268h-175l-153 1268h187l54 -1023z" />
    <glyph glyph-name="w" unicode="w" horiz-adv-x="789" 
d="M22 1255h190l38 -857l60 857h169l62 -849l40 849h187l-148 -1268h-151l-72 806l-76 -806h-149z" />
    <glyph glyph-name="x" unicode="x" horiz-adv-x="512" 
d="M34 1255h183l44 -468l46 468h186l-158 -604l158 -651h-193l-39 490l-44 -490h-197l163 651z" />
    <glyph glyph-name="y" unicode="y" horiz-adv-x="512" 
d="M19 1255h189l52 -855l46 855h187l-136 -1191q-19 -161 -92 -232.5t-191 -71.5q-21 0 -44 1v182l32 -2q41 0 63.5 19.5t44.5 86.5z" />
    <glyph glyph-name="z" unicode="z" horiz-adv-x="405" 
d="M28 1255h356l-157 -1109h157v-146h-362l158 1108h-152v147z" />
    <glyph glyph-name="braceleft" unicode="{" horiz-adv-x="555" 
d="M523 1643v-142q-64 -6 -92 -21t-42.5 -42t-16.5 -82l-6 -138v-173q0 -174 -44 -266q-25 -52 -105 -93q60 -33 84 -63q33 -42 47 -108q18 -89 18 -211v-142q0 -196 28.5 -241.5t128.5 -53.5v-144q-156 2 -234 89t-78 285v177q0 160 -18 223t-54 89q-27 19 -95 21v156
q59 1 87 16.5t48 54t25 105.5q7 95 7 133v167q0 92 14 171.5t54 132t90 74t154 26.5z" />
    <glyph glyph-name="bar" unicode="|" horiz-adv-x="533" 
d="M188 -334v1922h157v-1922h-157z" />
    <glyph glyph-name="braceright" unicode="}" horiz-adv-x="555" 
d="M32 1643q108 -5 157.5 -28t88.5 -76t50 -118q16 -98 16 -182v-167q0 -143 18 -203t50.5 -82.5t98.5 -23.5v-156q-67 -2 -99 -24t-50 -85t-18 -224v-177q0 -199 -78 -285.5t-234 -88.5v144q73 6 103 26.5t42 68.5t12 200v142q0 140 21 223q16 63 43 95.5t85 63.5
q-64 34 -88 65q-32 43 -44 109q-17 98 -17 185v173l-5 133q-3 59 -17 86.5t-42.5 42.5t-92.5 21v142z" />
    <glyph glyph-name="asciitilde" unicode="~" horiz-adv-x="1024" 
d="M940 959v-185q-118 -106 -228 -106q-93 0 -229 69q-77 40 -105 48.5t-60 8.5q-63 0 -118 -29t-117 -94v175q74 65 129.5 89.5t122.5 24.5q50 0 92.5 -12t146.5 -62.5t157 -50.5q90 0 209 124z" />
    <glyph glyph-name="Adieresis" unicode="&#xc4;" horiz-adv-x="640" 
d="M207 1643h239l172 -1643h-222l-11 293h-122l-22 -293h-219zM331 1373h-18q-10 -342 -15 -438l-23 -429h94l-15 331zM440 1946q35 0 60 -29.5t25 -85.5t-25 -85.5t-60 -29.5t-59.5 29t-24.5 84q0 56 25.5 86.5t58.5 30.5zM224 1946q35 0 60 -29.5t25 -85.5q0 -57 -25 -86
t-60 -29t-59.5 29t-24.5 84q0 56 25.5 86.5t58.5 30.5z" />
    <glyph glyph-name="Aring" unicode="&#xc5;" horiz-adv-x="640" 
d="M207 1643h239l172 -1643h-222l-11 293h-122l-22 -293h-219zM331 1373h-18q-10 -342 -15 -438l-23 -429h94l-15 331zM330 2045q68 0 116 -48t48 -116t-48 -116t-116 -48t-116 48t-48 116t48 116t116 48zM330 1977q-40 0 -68 -28.5t-28 -68.5t28 -68.5t68 -28.5t68.5 28.5
t28.5 68.5t-28.5 68.5t-68.5 28.5z" />
    <glyph glyph-name="Ccedilla" unicode="&#xc7;" horiz-adv-x="533" 
d="M509 22q-42 -35 -103 -35q-168 0 -268.5 221t-100.5 618q0 444 148 671q96 146 216 146q55 0 108 -31v-207q-34 18 -65 18q-61 0 -104 -76q-74 -132 -74 -494q0 -382 49.5 -507.5t131.5 -125.5q31 0 62 20v-218zM381 12q64 -12 97 -46.5t33 -76.5q0 -50 -45.5 -89
t-125.5 -39q-44 0 -108 12l23 75q20 -3 30 -3q35 0 58 17q15 12 15 30q0 16 -11 28.5t-49 28.5z" />
    <glyph glyph-name="Eacute" unicode="&#xc9;" horiz-adv-x="448" 
d="M54 1630h375v-216h-155v-514h155v-212h-155v-474h155v-214h-375v1630zM222 2025h195l-154 -306h-114z" />
    <glyph glyph-name="Ntilde" unicode="&#xd1;" 
d="M59 1630h201l137 -850h13l-25 850h218v-1630h-193l-150 904h-8l24 -904h-217v1630zM157 1716q-3 42 -3 63q0 101 42 158q28 39 72 39q26 0 67.5 -25t69.5 -25q20 0 34 10.5t23 38.5h60q4 -46 4 -70q0 -95 -45 -154q-31 -41 -75 -41q-27 0 -64.5 27.5t-65.5 27.5
q-19 0 -31 -9.5t-22 -39.5h-66z" />
    <glyph glyph-name="Odieresis" unicode="&#xd6;" 
d="M37 794q0 472 101 685q78 164 194 164q54 0 106 -40t96 -143.5t67 -277t23 -370.5q0 -498 -121 -704q-71 -121 -167 -121q-135 0 -209 192q-90 237 -90 615zM332 1392q-26 -44 -39 -96.5t-19 -188.5q-9 -214 -9 -337q0 -277 22 -399q14 -78 45 -137q29 58 41 111.5
t16 188.5q7 250 7 365q0 257 -21 368q-14 74 -43 125zM432 1946q35 0 60 -29.5t25 -85.5t-25 -85.5t-60 -29.5t-59.5 29t-24.5 84q0 56 25.5 86.5t58.5 30.5zM216 1946q35 0 60 -29.5t25 -85.5q0 -57 -25 -86t-60 -29t-59.5 29t-24.5 84q0 56 25.5 86.5t58.5 30.5z" />
    <glyph glyph-name="Udieresis" unicode="&#xdc;" 
d="M59 1630h220v-1188q0 -149 55 -200q48 64 48 180v1208h221v-1188q0 -224 -99 -356q-75 -99 -170 -99q-65 0 -130.5 50.5t-99.5 147.5q-45 132 -45 257v1188zM434 1946q35 0 60 -29.5t25 -85.5t-25 -85.5t-60 -29.5t-59.5 29t-24.5 84q0 56 25.5 86.5t58.5 30.5zM218 1946
q35 0 60 -29.5t25 -85.5q0 -57 -25 -86t-60 -29t-59.5 29t-24.5 84q0 56 25.5 86.5t58.5 30.5z" />
    <glyph glyph-name="aacute" unicode="&#xe1;" horiz-adv-x="576" 
d="M341 94q-63 -107 -130 -107t-111 76q-69 119 -69 482v151q0 295 125 452q96 120 259 120h89v-941q0 -87 12.5 -122.5t36.5 -56.5l-110 -161q-34 10 -56 31.5t-46 75.5zM314 1027q-47 -25 -69.5 -83.5t-22.5 -234.5v-230q0 -219 30 -283q13 -27 32 -27q20 0 30 13v845z
M286 1643h195l-154 -306h-114z" />
    <glyph glyph-name="agrave" unicode="&#xe0;" horiz-adv-x="576" 
d="M341 94q-63 -107 -130 -107t-111 76q-69 119 -69 482v151q0 295 125 452q96 120 259 120h89v-941q0 -87 12.5 -122.5t36.5 -56.5l-110 -161q-34 10 -56 31.5t-46 75.5zM314 1027q-47 -25 -69.5 -83.5t-22.5 -234.5v-230q0 -219 30 -283q13 -27 32 -27q20 0 30 13v845z
M314 1643l73 -304h-114l-154 304h195z" />
    <glyph glyph-name="acircumflex" unicode="&#xe2;" horiz-adv-x="576" 
d="M341 94q-63 -107 -130 -107t-111 76q-69 119 -69 482v151q0 295 125 452q96 120 259 120h89v-941q0 -87 12.5 -122.5t36.5 -56.5l-110 -161q-34 10 -56 31.5t-46 75.5zM314 1027q-47 -25 -69.5 -83.5t-22.5 -234.5v-230q0 -219 30 -283q13 -27 32 -27q20 0 30 13v845z
M220 1630h227l55 -296h-116l-54 129l-54 -129h-116z" />
    <glyph glyph-name="adieresis" unicode="&#xe4;" horiz-adv-x="576" 
d="M341 94q-63 -107 -130 -107t-111 76q-69 119 -69 482v151q0 295 125 452q96 120 259 120h89v-941q0 -87 12.5 -122.5t36.5 -56.5l-110 -161q-34 10 -56 31.5t-46 75.5zM314 1027q-47 -25 -69.5 -83.5t-22.5 -234.5v-230q0 -219 30 -283q13 -27 32 -27q20 0 30 13v845z
M408 1564q35 0 60 -29.5t25 -85.5t-25 -85.5t-60 -29.5t-59.5 29t-24.5 84q0 56 25.5 86.5t58.5 30.5zM192 1564q35 0 60 -29.5t25 -85.5q0 -57 -25 -86t-60 -29t-59.5 29t-24.5 84q0 56 25.5 86.5t58.5 30.5z" />
    <glyph glyph-name="atilde" unicode="&#xe3;" horiz-adv-x="576" 
d="M341 94q-63 -107 -130 -107t-111 76q-69 119 -69 482v151q0 295 125 452q96 120 259 120h89v-941q0 -87 12.5 -122.5t36.5 -56.5l-110 -161q-34 10 -56 31.5t-46 75.5zM314 1027q-47 -25 -69.5 -83.5t-22.5 -234.5v-230q0 -219 30 -283q13 -27 32 -27q20 0 30 13v845z
M115 1334q-3 42 -3 63q0 101 42 158q28 39 72 39q26 0 67.5 -25t69.5 -25q20 0 34 10.5t23 38.5h60q4 -46 4 -70q0 -95 -45 -154q-31 -41 -75 -41q-27 0 -64.5 27.5t-65.5 27.5q-19 0 -31 -9.5t-22 -39.5h-66z" />
    <glyph glyph-name="aring" unicode="&#xe5;" horiz-adv-x="576" 
d="M341 94q-63 -107 -130 -107t-111 76q-69 119 -69 482v151q0 295 125 452q96 120 259 120h89v-941q0 -87 12.5 -122.5t36.5 -56.5l-110 -161q-34 10 -56 31.5t-46 75.5zM314 1027q-47 -25 -69.5 -83.5t-22.5 -234.5v-230q0 -219 30 -283q13 -27 32 -27q20 0 30 13v845z
M298 1663q68 0 116 -48t48 -116t-48 -116t-116 -48t-116 48t-48 116t48 116t116 48zM298 1595q-40 0 -68 -28.5t-28 -68.5t28 -68.5t68 -28.5t68.5 28.5t28.5 68.5t-28.5 68.5t-68.5 28.5z" />
    <glyph glyph-name="ccedilla" unicode="&#xe7;" horiz-adv-x="405" 
d="M386 20q-12 -10 -44 -21.5t-57 -11.5q-61 0 -115.5 41.5t-83.5 126.5q-55 157 -55 397v183q0 299 96 437q67 96 174 96q32 0 85 -13v-194l-5 3q-22 14 -44 14q-45 0 -73 -48q-42 -70 -42 -295v-167q0 -276 37 -345q24 -44 62 -44q30 0 65 25v-184zM222 12
q64 -12 97 -46.5t33 -76.5q0 -50 -45.5 -89t-125.5 -39q-44 0 -108 12l23 75q20 -3 30 -3q35 0 58 17q15 12 15 30q0 16 -11 28.5t-49 28.5z" />
    <glyph glyph-name="eacute" unicode="&#xe9;" horiz-adv-x="533" 
d="M492 6q-45 -19 -103 -19q-144 0 -251 140t-107 496v144q0 288 86 415q58 86 152 86q116 0 174.5 -102.5t58.5 -247.5q0 -174 -70.5 -277t-198.5 -143q2 -157 67 -244q47 -62 111 -62q29 0 81 25v-211zM273 1070q-26 -40 -34 -70q-15 -57 -15 -133v-163q43 19 66.5 66
t23.5 143q0 105 -41 157zM265 1643h195l-154 -306h-114z" />
    <glyph glyph-name="egrave" unicode="&#xe8;" horiz-adv-x="533" 
d="M492 6q-45 -19 -103 -19q-144 0 -251 140t-107 496v144q0 288 86 415q58 86 152 86q116 0 174.5 -102.5t58.5 -247.5q0 -174 -70.5 -277t-198.5 -143q2 -157 67 -244q47 -62 111 -62q29 0 81 25v-211zM273 1070q-26 -40 -34 -70q-15 -57 -15 -133v-163q43 19 66.5 66
t23.5 143q0 105 -41 157zM293 1643l73 -304h-114l-154 304h195z" />
    <glyph glyph-name="ecircumflex" unicode="&#xea;" horiz-adv-x="533" 
d="M492 6q-45 -19 -103 -19q-144 0 -251 140t-107 496v144q0 288 86 415q58 86 152 86q116 0 174.5 -102.5t58.5 -247.5q0 -174 -70.5 -277t-198.5 -143q2 -157 67 -244q47 -62 111 -62q29 0 81 25v-211zM273 1070q-26 -40 -34 -70q-15 -57 -15 -133v-163q43 19 66.5 66
t23.5 143q0 105 -41 157zM166 1630h227l55 -296h-116l-54 129l-54 -129h-116z" />
    <glyph glyph-name="edieresis" unicode="&#xeb;" horiz-adv-x="533" 
d="M492 6q-45 -19 -103 -19q-144 0 -251 140t-107 496v144q0 288 86 415q58 86 152 86q116 0 174.5 -102.5t58.5 -247.5q0 -174 -70.5 -277t-198.5 -143q2 -157 67 -244q47 -62 111 -62q29 0 81 25v-211zM273 1070q-26 -40 -34 -70q-15 -57 -15 -133v-163q43 19 66.5 66
t23.5 143q0 105 -41 157zM387 1564q35 0 60 -29.5t25 -85.5t-25 -85.5t-60 -29.5t-59.5 29t-24.5 84q0 56 25.5 86.5t58.5 30.5zM171 1564q35 0 60 -29.5t25 -85.5q0 -57 -25 -86t-60 -29t-59.5 29t-24.5 84q0 56 25.5 86.5t58.5 30.5z" />
    <glyph glyph-name="iacute" unicode="&#xed;" horiz-adv-x="277" 
d="M43 1255h191v-1255h-191v1255zM137 1643h195l-154 -306h-114z" />
    <glyph glyph-name="igrave" unicode="&#xec;" horiz-adv-x="277" 
d="M43 1255h191v-1255h-191v1255zM165 1643l73 -304h-114l-154 304h195z" />
    <glyph glyph-name="icircumflex" unicode="&#xee;" horiz-adv-x="277" 
d="M43 1255h191v-1255h-191v1255zM38 1630h227l55 -296h-116l-54 129l-54 -129h-116z" />
    <glyph glyph-name="idieresis" unicode="&#xef;" horiz-adv-x="277" 
d="M43 1255h191v-1255h-191v1255zM259 1564q35 0 60 -29.5t25 -85.5t-25 -85.5t-60 -29.5t-59.5 29t-24.5 84q0 56 25.5 86.5t58.5 30.5zM43 1564q35 0 60 -29.5t25 -85.5q0 -57 -25 -86t-60 -29t-59.5 29t-24.5 84q0 56 25.5 86.5t58.5 30.5z" />
    <glyph glyph-name="ntilde" unicode="&#xf1;" horiz-adv-x="576" 
d="M137 1268q59 -19 96 -88q44 55 72 71.5t66 16.5q64 0 108.5 -54.5t44.5 -165.5v-1048h-191v1030q0 23 -13 37t-31 14q-11 0 -22 -8t-21 -25v-1048h-191v1030q0 73 -38 101zM115 1334q-3 42 -3 63q0 101 42 158q28 39 72 39q26 0 67.5 -25t69.5 -25q20 0 34 10.5t23 38.5
h60q4 -46 4 -70q0 -95 -45 -154q-31 -41 -75 -41q-27 0 -64.5 27.5t-65.5 27.5q-19 0 -31 -9.5t-22 -39.5h-66z" />
    <glyph glyph-name="oacute" unicode="&#xf3;" horiz-adv-x="533" 
d="M270 1268q83 0 141 -96q95 -158 95 -545q0 -385 -96 -545q-57 -95 -140 -95t-141 96q-95 157 -95 544q0 386 96 545q57 96 140 96zM270 1049q-16 -20 -25 -53q-7 -24 -13 -161q-9 -219 -9 -288q0 -284 47 -343q15 17 24 46q6 20 13 169q10 223 10 291q0 287 -47 339z
M265 1643h195l-154 -306h-114z" />
    <glyph glyph-name="ograve" unicode="&#xf2;" horiz-adv-x="533" 
d="M270 1268q83 0 141 -96q95 -158 95 -545q0 -385 -96 -545q-57 -95 -140 -95t-141 96q-95 157 -95 544q0 386 96 545q57 96 140 96zM270 1049q-16 -20 -25 -53q-7 -24 -13 -161q-9 -219 -9 -288q0 -284 47 -343q15 17 24 46q6 20 13 169q10 223 10 291q0 287 -47 339z
M293 1643l73 -304h-114l-154 304h195z" />
    <glyph glyph-name="ocircumflex" unicode="&#xf4;" horiz-adv-x="533" 
d="M270 1268q83 0 141 -96q95 -158 95 -545q0 -385 -96 -545q-57 -95 -140 -95t-141 96q-95 157 -95 544q0 386 96 545q57 96 140 96zM270 1049q-16 -20 -25 -53q-7 -24 -13 -161q-9 -219 -9 -288q0 -284 47 -343q15 17 24 46q6 20 13 169q10 223 10 291q0 287 -47 339z
M166 1630h227l55 -296h-116l-54 129l-54 -129h-116z" />
    <glyph glyph-name="odieresis" unicode="&#xf6;" horiz-adv-x="533" 
d="M270 1268q83 0 141 -96q95 -158 95 -545q0 -385 -96 -545q-57 -95 -140 -95t-141 96q-95 157 -95 544q0 386 96 545q57 96 140 96zM270 1049q-16 -20 -25 -53q-7 -24 -13 -161q-9 -219 -9 -288q0 -284 47 -343q15 17 24 46q6 20 13 169q10 223 10 291q0 287 -47 339z
M387 1564q35 0 60 -29.5t25 -85.5t-25 -85.5t-60 -29.5t-59.5 29t-24.5 84q0 56 25.5 86.5t58.5 30.5zM171 1564q35 0 60 -29.5t25 -85.5q0 -57 -25 -86t-60 -29t-59.5 29t-24.5 84q0 56 25.5 86.5t58.5 30.5z" />
    <glyph glyph-name="otilde" unicode="&#xf5;" horiz-adv-x="533" 
d="M270 1268q83 0 141 -96q95 -158 95 -545q0 -385 -96 -545q-57 -95 -140 -95t-141 96q-95 157 -95 544q0 386 96 545q57 96 140 96zM270 1049q-16 -20 -25 -53q-7 -24 -13 -161q-9 -219 -9 -288q0 -284 47 -343q15 17 24 46q6 20 13 169q10 223 10 291q0 287 -47 339z
M93 1334q-3 42 -3 63q0 101 42 158q28 39 72 39q26 0 67.5 -25t69.5 -25q20 0 34 10.5t23 38.5h60q4 -46 4 -70q0 -95 -45 -154q-31 -41 -75 -41q-27 0 -64.5 27.5t-65.5 27.5q-19 0 -31 -9.5t-22 -39.5h-66z" />
    <glyph glyph-name="uacute" unicode="&#xfa;" horiz-adv-x="576" 
d="M52 1255h191v-1026q0 -27 10.5 -39.5t27.5 -12.5q20 0 34.5 14.5t14.5 31.5v1032h191v-1053q0 -38 37 -77l-116 -138q-40 14 -62.5 34.5t-35.5 55.5q-42 -54 -73 -72t-70 -18q-63 0 -97 40q-52 63 -52 147v1081zM286 1643h195l-154 -306h-114z" />
    <glyph glyph-name="ugrave" unicode="&#xf9;" horiz-adv-x="576" 
d="M52 1255h191v-1026q0 -27 10.5 -39.5t27.5 -12.5q20 0 34.5 14.5t14.5 31.5v1032h191v-1053q0 -38 37 -77l-116 -138q-40 14 -62.5 34.5t-35.5 55.5q-42 -54 -73 -72t-70 -18q-63 0 -97 40q-52 63 -52 147v1081zM314 1643l73 -304h-114l-154 304h195z" />
    <glyph glyph-name="ucircumflex" unicode="&#xfb;" horiz-adv-x="576" 
d="M52 1255h191v-1026q0 -27 10.5 -39.5t27.5 -12.5q20 0 34.5 14.5t14.5 31.5v1032h191v-1053q0 -38 37 -77l-116 -138q-40 14 -62.5 34.5t-35.5 55.5q-42 -54 -73 -72t-70 -18q-63 0 -97 40q-52 63 -52 147v1081zM187 1630h227l55 -296h-116l-54 129l-54 -129h-116z" />
    <glyph glyph-name="udieresis" unicode="&#xfc;" horiz-adv-x="576" 
d="M52 1255h191v-1026q0 -27 10.5 -39.5t27.5 -12.5q20 0 34.5 14.5t14.5 31.5v1032h191v-1053q0 -38 37 -77l-116 -138q-40 14 -62.5 34.5t-35.5 55.5q-42 -54 -73 -72t-70 -18q-63 0 -97 40q-52 63 -52 147v1081zM408 1564q35 0 60 -29.5t25 -85.5t-25 -85.5t-60 -29.5
t-59.5 29t-24.5 84q0 56 25.5 86.5t58.5 30.5zM192 1564q35 0 60 -29.5t25 -85.5q0 -57 -25 -86t-60 -29t-59.5 29t-24.5 84q0 56 25.5 86.5t58.5 30.5z" />
    <glyph glyph-name="dagger" unicode="&#x2020;" horiz-adv-x="597" 
d="M270 1118l-58 477q-2 17 -2 24q0 10 9 17t31 7h122q13 0 19 -7q9 -11 9 -30q0 -6 -1 -11l-52 -477l173 43q12 3 23 3q16 0 23.5 -8t7.5 -27v-115q0 -15 -6.5 -22t-17.5 -7q-6 0 -13 2l-181 40l72 -1207l1 -8q0 -29 -10 -40t-31 -11h-148q-32 0 -39 8q-11 12 -11 45
q0 8 1 15l70 1198l-170 -40q-10 -2 -18 -2q-17 0 -25.5 8.5t-8.5 26.5v98q0 24 9 34.5t23 10.5q8 0 20 -2z" />
    <glyph glyph-name="degree" unicode="&#xb0;" horiz-adv-x="811" 
d="M128 1366q0 115 81.5 196t195.5 81q116 0 197 -81t81 -196t-81.5 -196.5t-196.5 -81.5q-114 0 -195.5 81.5t-81.5 196.5zM237 1366q0 -70 49.5 -119.5t119.5 -49.5q69 0 118.5 49.5t49.5 119.5t-49.5 119.5t-118.5 49.5q-70 0 -119.5 -49.5t-49.5 -119.5z" />
    <glyph glyph-name="cent" unicode="&#xa2;" horiz-adv-x="405" 
d="M342 1493h51l-51 -238q17 0 39 -8v-188q-23 17 -49 17q-44 0 -72 -46q-43 -72 -43 -278v-117q0 -336 38 -409q24 -47 68 -47q32 0 58 24v-182q-50 -34 -103 -34q-76 0 -152 81l-58 -307h-52l72 382q-30 81 -45 171.5t-15 190.5v231q0 317 105 450q62 80 165 82z" />
    <glyph glyph-name="sterling" unicode="&#xa3;" horiz-adv-x="597" 
d="M526 1643v-224q-85 -15 -126 -60q-54 -58 -73 -181.5t-24 -415.5h151v-181h-163q0 -79 -18 -189.5t-49 -189.5q31 8 58 8q25 0 75.5 -8t75.5 -8q74 0 139 48v-196q-65 -59 -178 -59q-50 0 -134 15q-64 11 -102 11q-51 0 -133 -26v122q45 74 64 164.5t20 307.5h-84v181h84
q4 315 28.5 468.5t77 240t127 128.5t184.5 44z" />
    <glyph glyph-name="section" unicode="&#xa7;" horiz-adv-x="597" 
d="M163 1112q-83 165 -83 274q0 110 69.5 183.5t163.5 73.5q49 0 94 -19.5t116 -77.5v-214q-113 115 -181 115q-32 0 -53.5 -22t-21.5 -58q0 -73 114 -229t153.5 -260t39.5 -202q0 -107 -28.5 -186.5t-106.5 -188.5q55 -104 74 -167t19 -124q0 -118 -67 -188.5t-166 -70.5
q-83 0 -177 54v224q59 -57 88 -73t56 -16q30 0 50 20.5t20 55.5q0 83 -116.5 258t-150 268t-33.5 177q0 119 35 222q27 78 92 171zM252 973q-49 -99 -49 -194q0 -75 32 -152.5t121 -197.5q51 90 51 175q0 80 -33 163t-122 206z" />
    <glyph glyph-name="bullet" unicode="&#x2022;" horiz-adv-x="683" 
d="M341 952q98 0 166.5 -68.5t68.5 -166.5q0 -97 -69 -166t-166 -69t-166 69t-69 166q0 98 68.5 166.5t166.5 68.5z" />
    <glyph glyph-name="paragraph" unicode="&#xb6;" horiz-adv-x="896" 
d="M898 1630v-157h-104v-1715h-148v1715h-99v-1715h-151v1052q-116 7 -192 46q-102 52 -154 145.5t-52 204.5q0 127 67.5 232t185 148.5t380.5 43.5h267z" />
    <glyph glyph-name="germandbls" unicode="&#xdf;" horiz-adv-x="555" 
d="M52 0v1307q0 175 66 255.5t164 80.5q97 0 157 -77.5t60 -275.5q0 -131 -24 -195q-17 -44 -51 -66q50 -33 72 -90q34 -89 34 -251v-229q0 -267 -73 -379q-52 -81 -155 -93v255q40 23 40 69v521q0 74 -40 118v170q18 17 26.5 51.5t8.5 85.5q0 87 -14 128.5t-41 68.5
q-20 -32 -29 -75q-16 -67 -16 -95v-1284h-185z" />
    <glyph glyph-name="registered" unicode="&#xae;" horiz-adv-x="1707" 
d="M853 1643q197 0 378 -98.5t284.5 -282.5t103.5 -385q0 -199 -101.5 -381t-283 -283.5t-381.5 -101.5t-381.5 101.5t-283 283t-101.5 381.5q0 202 103.5 385.5t284.5 282t378 98.5zM854 1494q-158 0 -303 -79.5t-228.5 -227.5t-83.5 -310q0 -161 81.5 -307t227.5 -227.5
t307 -81.5q160 0 305.5 81.5t227.5 228t82 306.5q0 162 -83.5 310t-229 227.5t-303.5 79.5zM507 468v813h165q233 0 261 -3q81 -6 126.5 -31.5t76 -78t30.5 -116.5q0 -88 -57.5 -151t-161.5 -78q37 -14 57 -30t55 -62q9 -12 60 -100l96 -163h-204l-68 131
q-69 134 -114 168.5t-114 34.5h-43v-334h-165zM672 930h67q131 0 161 6q43 9 67 38t24 68q0 40 -27 68.5t-74 35.5q-33 6 -152 6h-66v-222z" />
    <glyph glyph-name="copyright" unicode="&#xa9;" horiz-adv-x="1707" 
d="M853 1643q197 0 378 -98.5t284.5 -282.5t103.5 -384t-101.5 -381.5t-283 -283.5t-381.5 -102t-381.5 102t-283 283t-101.5 382t103.5 384.5t284.5 282t378 98.5zM853 1492q-158 0 -303.5 -79t-228.5 -226.5t-83 -308.5t81.5 -307t227.5 -227.5t306 -81.5t306 81.5
t227.5 227.5t81.5 307t-83 308.5t-228.5 226.5t-303.5 79zM1039 764l161 -55q-38 -126 -126 -192.5t-210 -66.5q-171 0 -279 111.5t-108 309.5q0 205 106.5 318t282.5 113q123 0 205.5 -58.5t128.5 -184.5l-162 -39q-28 74 -72.5 106.5t-105.5 32.5q-91 0 -149 -68t-58 -214
q0 -147 57 -216t137 -69q67 0 116 40t76 132z" />
    <glyph glyph-name="trademark" unicode="&#x2122;" horiz-adv-x="1365" 
d="M207 811v677h-157v142h473v-142h-150v-677h-166zM639 811v819h259l71 -503l71 503h259v-819h-157v653l-99 -653h-150l-97 653v-653h-157z" />
    <glyph glyph-name="acute" unicode="&#xb4;" horiz-adv-x="683" 
d="M340 1643h195l-154 -306h-114z" />
    <glyph glyph-name="dieresis" unicode="&#xa8;" horiz-adv-x="683" 
d="M462 1564q35 0 60 -29.5t25 -85.5t-25 -85.5t-60 -29.5t-59.5 29t-24.5 84q0 56 25.5 86.5t58.5 30.5zM246 1564q35 0 60 -29.5t25 -85.5q0 -57 -25 -86t-60 -29t-59.5 29t-24.5 84q0 56 25.5 86.5t58.5 30.5z" />
    <glyph glyph-name="notequal" unicode="&#x2260;" horiz-adv-x="1024" 
d="M579 1123l196 445h134l-195 -445h264v-167h-337l-121 -276h458v-167h-531l-196 -447h-135l196 447h-265v167h338l121 276h-459v167h532z" />
    <glyph glyph-name="AE" unicode="&#xc6;" horiz-adv-x="789" 
d="M263 1630h487v-216h-141v-515h151v-211h-151v-474h151v-214h-371v289h-117l-27 -289h-223zM380 1414l-88 -915h97v915h-9z" />
    <glyph glyph-name="Oslash" unicode="&#xd8;" 
d="M112 221q-31 92 -53 256t-22 351q0 416 94 636q77 179 201 179q102 0 176 -130l40 130h72l-70 -228q74 -222 74 -600q0 -501 -121 -707q-71 -121 -167 -121q-110 0 -183 134l-41 -134h-71zM266 721l123 403q-7 118 -20 172t-37 96q-38 -64 -48 -144q-15 -111 -18 -527z
M396 914l-123 -401q8 -122 20.5 -176t38.5 -103q40 79 49 154t15 526z" />
    <glyph glyph-name="infinity" unicode="&#x221e;" horiz-adv-x="1195" 
d="M556 812q116 145 185 188.5t148 43.5q105 0 196.5 -76t91.5 -245q0 -164 -81.5 -249.5t-206.5 -85.5q-79 0 -148.5 44t-184.5 188q-136 -171 -289 -171q-101 0 -173.5 76.5t-72.5 190.5q0 113 72.5 190t173.5 77q153 0 289 -171zM625 717q85 -132 156 -183
q47 -35 106 -35q76 0 127.5 56t51.5 158q0 106 -52.5 162t-130.5 56q-53 0 -104 -37t-154 -177zM487 716q-76 95 -124.5 126t-95.5 31q-58 0 -96.5 -41t-38.5 -113q0 -71 40 -113.5t97 -42.5q101 0 218 153z" />
    <glyph glyph-name="plusminus" unicode="&#xb1;" horiz-adv-x="1024" 
d="M47 1027h382v402h168v-402h381v-168h-381v-402h-168v402h-382v168zM47 367h931v-166h-931v166z" />
    <glyph glyph-name="lessequal" unicode="&#x2264;" horiz-adv-x="1024" 
d="M920 1436v-175l-648 -324l648 -322v-175l-816 421v154zM104 366h816v-167h-816v167z" />
    <glyph glyph-name="greaterequal" unicode="&#x2265;" horiz-adv-x="1024" 
d="M104 1436l816 -421v-154l-816 -421v175l648 322l-648 324v175zM104 366h816v-167h-816v167z" />
    <glyph glyph-name="yen" unicode="&#xa5;" horiz-adv-x="640" 
d="M429 779h190v-109h-190v-132h190v-108h-190v-430h-220v430h-187v108h187v132h-187v109h187l-187 851h224l75 -415l77 415h221z" />
    <glyph glyph-name="uni00B5" unicode="&#xb5;" horiz-adv-x="939" 
d="M123 1255h190v-734q0 -176 30 -243t96 -67q33 0 57 17t40 54.5t19 91.5q6 128 6 140v741h190v-1255h-170v119q-16 -73 -52 -106t-79 -33q-47 0 -82.5 30t-54.5 104v-521h-190v1662z" />
    <glyph glyph-name="partialdiff" unicode="&#x2202;" horiz-adv-x="1003" 
d="M422 1138l-135 60q70 157 168 225t192 68q76 0 137.5 -39.5t92.5 -90.5q47 -79 69.5 -187t22.5 -248q0 -288 -86.5 -512.5t-233.5 -331.5t-289 -107q-137 0 -222.5 91t-85.5 256q0 226 153 387q197 207 649 215q-4 168 -24 256t-68 135.5t-113 47.5q-62 0 -121 -49.5
t-106 -175.5zM850 796q-244 -14 -357.5 -68t-187 -176.5t-73.5 -248.5q0 -83 51 -137t119 -54q75 0 160 55q117 76 190.5 234.5t97.5 394.5z" />
    <glyph glyph-name="summation" unicode="&#x2211;" horiz-adv-x="1460" 
d="M139 1491h1237v-164h-988l607 -775l-649 -822h1040v-161h-1264v187l620 788l-603 772v175z" />
    <glyph glyph-name="product" unicode="&#x220f;" horiz-adv-x="1685" 
d="M161 1491h1362v-1922h-191v1748h-978v-1748h-193v1922z" />
    <glyph glyph-name="pi" unicode="&#x3c0;" horiz-adv-x="1280" 
d="M61 1063h1182v-158h-162v-905h-189v905h-484v-905h-188v905h-159v158z" />
    <glyph glyph-name="integral" unicode="&#x222b;" horiz-adv-x="555" 
d="M198 948l18 548q9 113 31.5 187t45.5 104.5t62.5 53t76.5 22.5q50 0 87.5 -33.5t37.5 -73.5q0 -47 -26.5 -75.5t-65.5 -28.5q-35 0 -76 36q-23 20 -40 20t-28.5 -14.5t-11.5 -49.5q0 -42 9 -145q37 -410 37 -665q0 -67 -14 -526q-5 -164 -20 -256q-20 -122 -52 -175
t-70.5 -75t-83.5 -22q-52 0 -85 34t-33 87q0 45 25.5 72t64.5 27q40 0 69 -32t49 -32q17 0 28 14t11 47q0 42 -9 120q-37 315 -37 831z" />
    <glyph glyph-name="ordfeminine" unicode="&#xaa;" horiz-adv-x="405" 
d="M265 843q-42 -73 -91 -73q-46 0 -76 52q-47 81 -47 328v103q0 201 76 293.5t195 92.5h51v-635q0 -95 34 -124l-74 -111q-22 7 -36.5 22t-31.5 52zM247 1479q-27 -15 -39 -43q-26 -61 -26 -174v-157q0 -148 21 -192q9 -19 23 -19q15 0 21 9v576z" />
    <glyph glyph-name="ordmasculine" unicode="&#xba;" horiz-adv-x="363" 
d="M193 1643q59 0 97 -64q65 -109 65 -378q0 -256 -66 -368q-38 -63 -91 -63q-78 0 -116 99q-49 130 -49 344q0 254 67 365q39 65 93 65zM195 1495q-9 -8 -14 -24q-8 -22 -12 -117q-6 -148 -6 -200q0 -104 8 -163t24 -73q10 14 17 36q5 16 8 110q7 149 7 198q0 207 -32 233z
" />
    <glyph glyph-name="uni2126" unicode="&#x2126;" horiz-adv-x="1621" 
d="M520 169q-108 67 -165 129q-88 95 -134.5 222.5t-46.5 282.5q0 193 80.5 357.5t232.5 249.5t345 85q335 0 515 -250q132 -183 132 -443q0 -165 -53.5 -293t-140.5 -220q-54 -58 -150 -120l364 6v-164h-575v175q80 39 124 76q72 61 122 144t75.5 177t25.5 195
q0 215 -105.5 385.5t-336.5 170.5q-192 0 -317.5 -143t-125.5 -409q0 -215 90.5 -368t251.5 -225v-178h-577v165z" />
    <glyph glyph-name="ae" unicode="&#xe6;" horiz-adv-x="811" 
d="M445 1227q53 41 106 41q90 0 146 -74q77 -100 77 -285q0 -121 -40 -209t-106 -140q-42 -33 -123 -58q21 -186 71 -246.5t118 -60.5q43 0 74 28v-213q-59 -23 -114 -23q-89 0 -153 41t-116 119q-88 -160 -174 -160q-33 0 -71 31t-63 107q-46 142 -46 377v110q0 153 22 274
t48.5 177.5t77.5 108.5t108 73t158 23v-41zM550 1074q-26 -57 -35.5 -99.5t-9.5 -101.5v-162q84 46 84 209q0 99 -39 154zM318 1039q-23 -15 -37 -34q-20 -29 -34 -78q-7 -26 -11 -82q-14 -218 -14 -349q0 -230 30 -292q14 -28 39 -28q14 0 27 11v852z" />
    <glyph glyph-name="oslash" unicode="&#xf8;" horiz-adv-x="533" 
d="M100 172q-27 77 -44.5 204t-17.5 261q0 287 65 459t172 172q88 0 143 -101l32 101h57l-57 -175q60 -185 60 -472q0 -310 -63 -472t-166 -162q-93 0 -150 103l-31 -103h-59zM276 1054q-47 -58 -47 -327v-147l91 265q-2 167 -44 209zM320 678l-84 -260q-1 -20 -1 -31
q0 -52 15 -117q10 -46 26 -66q19 24 28 76q16 91 16 191v207z" />
    <glyph glyph-name="questiondown" unicode="&#xbf;" horiz-adv-x="341" 
d="M172 1174q-50 0 -85 35t-35 84q0 50 35 85t85 35q49 0 84 -35t35 -85q0 -49 -35 -84t-84 -35zM317 -200q-61 -39 -123 -39q-77 0 -128.5 60.5t-51.5 183.5q0 127 68 389q49 190 70 329q11 74 12 194h86q5 -136 5 -236q0 -198 -33 -439q-17 -120 -17 -160q0 -53 16.5 -74
t39.5 -21q28 0 56 31v-218z" />
    <glyph glyph-name="exclamdown" unicode="&#xa1;" horiz-adv-x="277" 
d="M140 1176q-50 0 -84.5 35t-34.5 84t34.5 84t84.5 35q49 0 83.5 -35t34.5 -84t-34.5 -84t-83.5 -35zM170 920l72 -631q13 -130 13 -221q0 -186 -43 -256q-28 -44 -72 -44q-42 0 -71 44q-43 68 -43 239q0 176 50 578q22 177 32 291h62z" />
    <glyph glyph-name="logicalnot" unicode="&#xac;" horiz-adv-x="1024" 
d="M47 1123h930v-444h-167v278h-763v166z" />
    <glyph glyph-name="radical" unicode="&#x221a;" horiz-adv-x="1131" 
d="M1053 1869h74l-312 -1947l-496 1021l-198 -91l-34 64l301 151l405 -823z" />
    <glyph glyph-name="florin" unicode="&#x192;" horiz-adv-x="405" 
d="M386 1643v-181q-41 -7 -59 -30q-26 -35 -26 -81v-96h85v-160h-85v-999q0 -126 -22.5 -189.5t-84.5 -103.5t-163 -42v206q39 0 56 25q23 33 23 136v967h-79v160h79v85q0 104 35.5 176t105.5 105q47 22 135 22z" />
    <glyph glyph-name="approxequal" unicode="&#x2248;" horiz-adv-x="1024" 
d="M940 1152v-185q-118 -106 -228 -106q-93 0 -229 69q-77 40 -105 48.5t-60 8.5q-63 0 -118 -29t-117 -94v175q74 65 129.5 89.5t122.5 24.5q50 0 92.5 -12t146.5 -62.5t157 -50.5q90 0 209 124zM940 766v-185q-118 -106 -228 -106q-93 0 -229 69q-77 40 -105 48.5t-60 8.5
q-63 0 -118 -29t-117 -94v175q74 65 129.5 89.5t122.5 24.5q50 0 92.5 -12t146.5 -62.5t157 -50.5q90 0 209 124z" />
    <glyph glyph-name="uni2206" unicode="&#x2206;" horiz-adv-x="1259" 
d="M1229 0h-1200l628 1387zM993 82l-399 967l-440 -967h839z" />
    <glyph glyph-name="guillemotleft" unicode="&#xab;" horiz-adv-x="619" 
d="M208 1202h155l-176 -501l176 -505h-155l-177 505zM448 1202h158l-174 -501l174 -505h-158l-174 505z" />
    <glyph glyph-name="guillemotright" unicode="&#xbb;" horiz-adv-x="619" 
d="M29 1204h157l175 -500l-175 -508h-157l174 508zM272 1204h155l178 -500l-178 -508h-155l175 508z" />
    <glyph glyph-name="ellipsis" unicode="&#x2026;" horiz-adv-x="2048" 
d="M456 234q52 0 88 -36t36 -87q0 -52 -36 -88t-88 -36q-51 0 -87.5 36t-36.5 88q0 51 36.5 87t87.5 36zM1597 232q51 0 87 -36t36 -86q0 -51 -36 -87t-87 -36q-50 0 -86 36t-36 87t36 86.5t86 35.5zM1027 230q51 0 87 -35.5t36 -85.5t-36 -86t-87 -36t-87.5 36t-36.5 86
t36.5 85.5t87.5 35.5z" />
    <glyph glyph-name="uni00A0" unicode="&#xa0;" horiz-adv-x="331" 
 />
    <glyph glyph-name="Agrave" unicode="&#xc0;" horiz-adv-x="640" 
d="M207 1643h239l172 -1643h-222l-11 293h-122l-22 -293h-219zM331 1373h-18q-10 -342 -15 -438l-23 -429h94l-15 331zM346 2025l73 -304h-114l-154 304h195z" />
    <glyph glyph-name="Atilde" unicode="&#xc3;" horiz-adv-x="640" 
d="M207 1643h239l172 -1643h-222l-11 293h-122l-22 -293h-219zM331 1373h-18q-10 -342 -15 -438l-23 -429h94l-15 331zM147 1716q-3 42 -3 63q0 101 42 158q28 39 72 39q26 0 67.5 -25t69.5 -25q20 0 34 10.5t23 38.5h60q4 -46 4 -70q0 -95 -45 -154q-31 -41 -75 -41
q-27 0 -64.5 27.5t-65.5 27.5q-19 0 -31 -9.5t-22 -39.5h-66z" />
    <glyph glyph-name="Otilde" unicode="&#xd5;" 
d="M37 794q0 472 101 685q78 164 194 164q54 0 106 -40t96 -143.5t67 -277t23 -370.5q0 -498 -121 -704q-71 -121 -167 -121q-135 0 -209 192q-90 237 -90 615zM332 1392q-26 -44 -39 -96.5t-19 -188.5q-9 -214 -9 -337q0 -277 22 -399q14 -78 45 -137q29 58 41 111.5
t16 188.5q7 250 7 365q0 257 -21 368q-14 74 -43 125zM157 1716q-3 42 -3 63q0 101 42 158q28 39 72 39q26 0 67.5 -25t69.5 -25q20 0 34 10.5t23 38.5h60q4 -46 4 -70q0 -95 -45 -154q-31 -41 -75 -41q-27 0 -64.5 27.5t-65.5 27.5q-19 0 -31 -9.5t-22 -39.5h-66z" />
    <glyph glyph-name="OE" unicode="&#x152;" horiz-adv-x="789" 
d="M761 0h-415q-77 0 -128 44q-81 70 -131 256.5t-50 502.5q0 241 37.5 457.5t136.5 318.5q51 51 129 51h421v-214h-153v-518h153v-212h-153v-475h153v-211zM327 1377q-24 -44 -38 -102q-9 -43 -15 -203q-10 -275 -10 -361q0 -243 23 -357q13 -61 40 -103q33 76 47.5 179.5
t14.5 405.5q0 283 -17 393q-12 81 -45 148z" />
    <glyph glyph-name="oe" unicode="&#x153;" horiz-adv-x="811" 
d="M399 1195q61 73 147 73q95 0 163 -86t68 -270q0 -140 -43.5 -226t-108.5 -134q-38 -28 -114 -54q10 -167 65 -237t116 -70q42 0 81 31v-212q-51 -23 -105 -23q-138 0 -242 131q-64 -131 -161 -131q-104 0 -162 149q-72 186 -72 486q0 307 76 504q55 142 160 142
q68 0 132 -73zM555 1072q-52 -70 -52 -241v-127q90 53 90 200q0 106 -38 168zM267 1060q-41 -70 -41 -224v-386q0 -124 13 -180q9 -40 28 -66q43 62 43 218v439q0 133 -43 199z" />
    <glyph glyph-name="endash" unicode="&#x2013;" horiz-adv-x="1024" 
d="M-21 603h1042v-182h-1042v182z" />
    <glyph glyph-name="emdash" unicode="&#x2014;" horiz-adv-x="2048" 
d="M-21 603h2065v-182h-2065v182z" />
    <glyph glyph-name="quotedblleft" unicode="&#x201c;" horiz-adv-x="576" 
d="M461 1442q48 -9 71.5 -38.5t23.5 -76.5q0 -55 -33.5 -90t-81.5 -35q-50 0 -84.5 38.5t-34.5 108.5q0 87 55.5 174t178.5 154v-92q-36 -26 -58 -58t-37 -85zM173 1442q48 -9 71.5 -38.5t23.5 -76.5q0 -55 -33.5 -90t-81.5 -35q-50 0 -84.5 38.5t-34.5 108.5
q0 86 55.5 173.5t178.5 154.5v-92q-36 -26 -58 -58t-37 -85z" />
    <glyph glyph-name="quotedblright" unicode="&#x201d;" horiz-adv-x="576" 
d="M419 1431q-48 16 -72.5 48.5t-24.5 73.5q0 49 35 83.5t85 34.5q51 0 86 -37t35 -100q0 -89 -58 -178.5t-182 -150.5v88q72 48 96 138zM130 1431q-48 16 -72.5 48.5t-24.5 73.5q0 49 35 83.5t85 34.5q51 0 85.5 -37t34.5 -100q0 -89 -57.5 -178.5t-182.5 -150.5v88
q73 48 97 138z" />
    <glyph glyph-name="quoteleft" unicode="&#x2018;" horiz-adv-x="277" 
d="M164 1413q48 -9 71.5 -38.5t23.5 -76.5q0 -54 -33.5 -89.5t-81.5 -35.5q-50 0 -84.5 38t-34.5 107q0 85 55 171.5t179 153.5v-87q-36 -26 -58 -58t-37 -85z" />
    <glyph glyph-name="quoteright" unicode="&#x2019;" horiz-adv-x="277" 
d="M126 1402q-48 16 -72.5 49t-24.5 74q0 49 35 83.5t85 34.5q51 0 85.5 -37t34.5 -100q0 -89 -57.5 -179t-182.5 -151v92q73 47 97 134z" />
    <glyph glyph-name="divide" unicode="&#xf7;" horiz-adv-x="1024" 
d="M427 1226h168v-202h-168v202zM47 898h929v-167h-929v167zM427 605h168v-202h-168v202z" />
    <glyph glyph-name="lozenge" unicode="&#x25ca;" horiz-adv-x="1003" 
d="M545 1422l418 -713l-418 -709h-111l-391 709l391 713h111zM491 1325l-340 -616l340 -615l359 615z" />
    <glyph glyph-name="ydieresis" unicode="&#xff;" horiz-adv-x="512" 
d="M19 1255h189l52 -855l46 855h187l-136 -1191q-19 -161 -92 -232.5t-191 -71.5q-21 0 -44 1v182l32 -2q41 0 63.5 19.5t44.5 86.5zM376 1564q35 0 60 -29.5t25 -85.5t-25 -85.5t-60 -29.5t-59.5 29t-24.5 84q0 56 25.5 86.5t58.5 30.5zM160 1564q35 0 60 -29.5t25 -85.5
q0 -57 -25 -86t-60 -29t-59.5 29t-24.5 84q0 56 25.5 86.5t58.5 30.5z" />
    <glyph glyph-name="Ydieresis" unicode="&#x178;" horiz-adv-x="640" 
d="M22 1630h224l75 -415l77 415h221l-190 -852v-778h-220v778zM462 1946q35 0 60 -29.5t25 -85.5t-25 -85.5t-60 -29.5t-59.5 29t-24.5 84q0 56 25.5 86.5t58.5 30.5zM246 1946q35 0 60 -29.5t25 -85.5q0 -57 -25 -86t-60 -29t-59.5 29t-24.5 84q0 56 25.5 86.5t58.5 30.5z
" />
    <glyph glyph-name="uni2044" unicode="&#x2044;" horiz-adv-x="0" 
d="M225 1643h90l-524 -1677h-92z" />
    <glyph glyph-name="uni2044" unicode="&#x2215;" horiz-adv-x="0" 
d="M225 1643h90l-524 -1677h-92z" />
    <glyph glyph-name="Euro" unicode="&#x20ac;" horiz-adv-x="662" 
d="M588 1602l-29 -191q-24 12 -51 12q-142 0 -174 -352h219l-25 -182h-202v-146h184l-25 -182h-153q34 -342 172 -342q31 0 63 21v-217q-35 -33 -102 -33q-136 0 -228 146.5t-126 424.5h-91l25 182h53q-2 35 -2 119v27h-76l25 182h64q34 266 132 418.5t222 152.5
q66 0 125 -40z" />
    <glyph glyph-name="guilsinglleft" unicode="&#x2039;" horiz-adv-x="363" 
d="M192 1202h161l-174 -502l174 -504h-154l-178 504z" />
    <glyph glyph-name="guilsinglright" unicode="&#x203a;" horiz-adv-x="363" 
d="M12 1202h158l175 -503l-175 -503h-158l176 503z" />
    <glyph glyph-name="uniF001" unicode="&#xf001;" horiz-adv-x="619" 
d="M574 1255v-1255h-190v1095h-84v-999q0 -125 -18.5 -178t-54 -87t-75.5 -48.5t-122 -21.5v206q42 0 60.5 31t18.5 174v923h-79v160h79v85q0 101 34 173.5t100 106.5q46 23 123 23v-188q-30 -1 -48 -24.5t-18 -79.5v-96h274zM591 1540q0 -42 -30 -72t-72 -30t-71.5 30
t-29.5 72t29.5 71.5t71.5 29.5t72 -29.5t30 -71.5z" />
    <glyph glyph-name="uniF001" unicode="&#xfb01;" horiz-adv-x="619" 
d="M574 1255v-1255h-190v1095h-84v-999q0 -125 -18.5 -178t-54 -87t-75.5 -48.5t-122 -21.5v206q42 0 60.5 31t18.5 174v923h-79v160h79v85q0 101 34 173.5t100 106.5q46 23 123 23v-188q-30 -1 -48 -24.5t-18 -79.5v-96h274zM591 1540q0 -42 -30 -72t-72 -30t-71.5 30
t-29.5 72t29.5 71.5t71.5 29.5t72 -29.5t30 -71.5z" />
    <glyph glyph-name="uniF002" unicode="&#xf002;" 
d="M113 1255v85q0 149 69.5 226t179.5 77q22 0 67 -5q69 -7 149 -8v-1373q0 -61 13 -86.5t47 -42.5l-146 -141q-53 18 -78.5 57.5t-25.5 111.5v939h-85v-999q0 -126 -22.5 -189.5t-84.5 -103.5t-163 -42v206q39 0 56 25q24 33 24 136v967h-80v160h80zM388 1461
q-40 -7 -62.5 -36t-22.5 -74v-96h85v206z" />
    <glyph glyph-name="uniF002" unicode="&#xfb02;" 
d="M113 1255v85q0 149 69.5 226t179.5 77q22 0 67 -5q69 -7 149 -8v-1373q0 -61 13 -86.5t47 -42.5l-146 -141q-53 18 -78.5 57.5t-25.5 111.5v939h-85v-999q0 -126 -22.5 -189.5t-84.5 -103.5t-163 -42v206q39 0 56 25q24 33 24 136v967h-80v160h80zM388 1461
q-40 -7 -62.5 -36t-22.5 -74v-96h85v206z" />
    <glyph glyph-name="daggerdbl" unicode="&#x2021;" horiz-adv-x="597" 
d="M271 1208l-55 384q-1 8 -1 16q0 17 9.5 26t30.5 9h120q13 0 20 -7q9 -11 9 -28q0 -8 -2 -16l-58 -384l180 47q11 3 19 3q14 0 22 -11q11 -13 11 -39v-92q0 -19 -9 -29t-21 -10l-8 1l-194 38l58 -418l-58 -414l180 38q7 1 14 1q18 0 26 -10q12 -15 12 -43v-81
q0 -21 -10 -35q-6 -8 -18 -8l-204 43l58 -395l1 -5q0 -13 -8 -20.5t-20 -7.5h-120q-22 0 -30.5 7t-8.5 19v7l55 395l-186 -43h-5q-14 0 -26 12t-12 24v95q0 25 9.5 36t25.5 11q8 0 17 -2l177 -38l-55 420l55 412l-177 -38q-10 -2 -17 -2q-17 0 -26 10t-9 30v92q0 31 7 40.5
t21 9.5q9 0 24 -3z" />
    <glyph glyph-name="periodcentered" unicode="&#x2219;" horiz-adv-x="277" 
d="M139 948q51 0 86.5 -36t35.5 -86q0 -51 -36 -86.5t-86 -35.5q-51 0 -86.5 35.5t-35.5 86.5q0 50 35.5 86t86.5 36z" />
    <glyph glyph-name="quotesinglbase" unicode="&#x201a;" horiz-adv-x="277" 
d="M127 -13q-48 16 -72.5 49t-24.5 73q0 49 34.5 83t85.5 34t85.5 -36.5t34.5 -100.5q0 -90 -57.5 -178t-182.5 -150v88q73 48 97 138z" />
    <glyph glyph-name="quotedblbase" unicode="&#x201e;" horiz-adv-x="576" 
d="M136 -19q-48 16 -72.5 48.5t-24.5 73.5q0 49 35 83.5t85 34.5q51 0 85.5 -37t34.5 -101q0 -91 -57.5 -179t-182.5 -149v88q73 48 97 138zM420 -19q-48 16 -72.5 48.5t-24.5 73.5q0 49 34.5 83.5t85.5 34.5t85.5 -37t34.5 -101q0 -91 -57.5 -179t-182.5 -149v88
q72 48 97 138z" />
    <glyph glyph-name="perthousand" unicode="&#x2030;" horiz-adv-x="1429" 
d="M695 1643h91l-520 -1676h-95zM246 1643q84 0 139 -75q75 -106 75 -330q0 -217 -75 -324q-53 -74 -133 -74q-82 0 -135 76q-78 111 -78 337q0 132 34.5 228.5t88.5 135.5q36 26 84 26zM251 1497q-21 -31 -31 -73q-13 -56 -13 -172q0 -201 44 -261q43 53 43 252
q0 126 -13 182q-9 41 -30 72zM703 772q84 0 138 -76q76 -106 76 -330q0 -218 -76 -325q-52 -75 -133 -75t-135 77q-77 110 -77 336q0 206 78 317q54 76 129 76zM708 623q-21 -30 -32.5 -79t-11.5 -165q0 -202 44 -261q43 53 43 251q0 126 -13 183q-9 41 -30 71zM1176 772
q85 0 139 -76q75 -106 75 -330q0 -218 -75 -325q-53 -75 -133 -75q-82 0 -135 77q-78 110 -78 336q0 206 78 317q54 76 129 76zM1181 623q-20 -30 -31.5 -79t-11.5 -165q0 -202 43 -261q43 53 43 251q0 126 -12 183q-10 41 -31 71z" />
    <glyph glyph-name="Acircumflex" unicode="&#xc2;" horiz-adv-x="640" 
d="M207 1643h239l172 -1643h-222l-11 293h-122l-22 -293h-219zM331 1373h-18q-10 -342 -15 -438l-23 -429h94l-15 331zM219 2012h227l55 -296h-116l-54 129l-54 -129h-116z" />
    <glyph glyph-name="Ecircumflex" unicode="&#xca;" horiz-adv-x="448" 
d="M54 1630h375v-216h-155v-514h155v-212h-155v-474h155v-214h-375v1630zM101 2012h227l55 -296h-116l-54 129l-54 -129h-116z" />
    <glyph glyph-name="Aacute" unicode="&#xc1;" horiz-adv-x="640" 
d="M207 1643h239l172 -1643h-222l-11 293h-122l-22 -293h-219zM331 1373h-18q-10 -342 -15 -438l-23 -429h94l-15 331zM318 2025h195l-154 -306h-114z" />
    <glyph glyph-name="Edieresis" unicode="&#xcb;" horiz-adv-x="448" 
d="M54 1630h375v-216h-155v-514h155v-212h-155v-474h155v-214h-375v1630zM344 1946q35 0 60 -29.5t25 -85.5t-25 -85.5t-60 -29.5t-59.5 29t-24.5 84q0 56 25.5 86.5t58.5 30.5zM128 1946q35 0 60 -29.5t25 -85.5q0 -57 -25 -86t-60 -29t-59.5 29t-24.5 84q0 56 25.5 86.5
t58.5 30.5z" />
    <glyph glyph-name="Egrave" unicode="&#xc8;" horiz-adv-x="448" 
d="M54 1630h375v-216h-155v-514h155v-212h-155v-474h155v-214h-375v1630zM250 2025l73 -304h-114l-154 304h195z" />
    <glyph glyph-name="Iacute" unicode="&#xcd;" horiz-adv-x="320" 
d="M50 1630h220v-1630h-220v1630zM158 2025h195l-154 -306h-114z" />
    <glyph glyph-name="Icircumflex" unicode="&#xce;" horiz-adv-x="320" 
d="M50 1630h220v-1630h-220v1630zM61 2012h227l55 -296h-116l-54 129l-54 -129h-116z" />
    <glyph glyph-name="Idieresis" unicode="&#xcf;" horiz-adv-x="320" 
d="M50 1630h220v-1630h-220v1630zM272 1946q35 0 60 -29.5t25 -85.5t-25 -85.5t-60 -29.5t-59.5 29t-24.5 84q0 56 25.5 86.5t58.5 30.5zM56 1946q35 0 60 -29.5t25 -85.5q0 -57 -25 -86t-60 -29t-59.5 29t-24.5 84q0 56 25.5 86.5t58.5 30.5z" />
    <glyph glyph-name="Igrave" unicode="&#xcc;" horiz-adv-x="320" 
d="M50 1630h220v-1630h-220v1630zM186 2025l73 -304h-114l-154 304h195z" />
    <glyph glyph-name="Oacute" unicode="&#xd3;" 
d="M37 794q0 472 101 685q78 164 194 164q54 0 106 -40t96 -143.5t67 -277t23 -370.5q0 -498 -121 -704q-71 -121 -167 -121q-135 0 -209 192q-90 237 -90 615zM332 1392q-26 -44 -39 -96.5t-19 -188.5q-9 -214 -9 -337q0 -277 22 -399q14 -78 45 -137q29 58 41 111.5
t16 188.5q7 250 7 365q0 257 -21 368q-14 74 -43 125zM329 2025h195l-154 -306h-114z" />
    <glyph glyph-name="Ocircumflex" unicode="&#xd4;" 
d="M37 794q0 472 101 685q78 164 194 164q54 0 106 -40t96 -143.5t67 -277t23 -370.5q0 -498 -121 -704q-71 -121 -167 -121q-135 0 -209 192q-90 237 -90 615zM332 1392q-26 -44 -39 -96.5t-19 -188.5q-9 -214 -9 -337q0 -277 22 -399q14 -78 45 -137q29 58 41 111.5
t16 188.5q7 250 7 365q0 257 -21 368q-14 74 -43 125zM230 2012h227l55 -296h-116l-54 129l-54 -129h-116z" />
    <glyph glyph-name="apple" horiz-adv-x="1621" 
 />
    <glyph glyph-name="Ograve" unicode="&#xd2;" 
d="M37 794q0 472 101 685q78 164 194 164q54 0 106 -40t96 -143.5t67 -277t23 -370.5q0 -498 -121 -704q-71 -121 -167 -121q-135 0 -209 192q-90 237 -90 615zM332 1392q-26 -44 -39 -96.5t-19 -188.5q-9 -214 -9 -337q0 -277 22 -399q14 -78 45 -137q29 58 41 111.5
t16 188.5q7 250 7 365q0 257 -21 368q-14 74 -43 125zM357 2025l73 -304h-114l-154 304h195z" />
    <glyph glyph-name="Uacute" unicode="&#xda;" 
d="M59 1630h220v-1188q0 -149 55 -200q48 64 48 180v1208h221v-1188q0 -224 -99 -356q-75 -99 -170 -99q-65 0 -130.5 50.5t-99.5 147.5q-45 132 -45 257v1188zM329 2025h195l-154 -306h-114z" />
    <glyph glyph-name="Ucircumflex" unicode="&#xdb;" 
d="M59 1630h220v-1188q0 -149 55 -200q48 64 48 180v1208h221v-1188q0 -224 -99 -356q-75 -99 -170 -99q-65 0 -130.5 50.5t-99.5 147.5q-45 132 -45 257v1188zM241 2012h227l55 -296h-116l-54 129l-54 -129h-116z" />
    <glyph glyph-name="Ugrave" unicode="&#xd9;" 
d="M59 1630h220v-1188q0 -149 55 -200q48 64 48 180v1208h221v-1188q0 -224 -99 -356q-75 -99 -170 -99q-65 0 -130.5 50.5t-99.5 147.5q-45 132 -45 257v1188zM357 2025l73 -304h-114l-154 304h195z" />
    <glyph glyph-name="dotlessi" unicode="&#x131;" horiz-adv-x="277" 
d="M43 1255h191v-1255h-191v1255z" />
    <glyph glyph-name="circumflex" unicode="&#x2c6;" horiz-adv-x="683" 
d="M241 1630h227l55 -296h-116l-54 129l-54 -129h-116z" />
    <glyph glyph-name="tilde" unicode="&#x2dc;" horiz-adv-x="704" 
d="M179 1334q-3 42 -3 63q0 101 42 158q28 39 72 39q26 0 67.5 -25t69.5 -25q20 0 34 10.5t23 38.5h60q4 -46 4 -70q0 -95 -45 -154q-31 -41 -75 -41q-27 0 -64.5 27.5t-65.5 27.5q-19 0 -31 -9.5t-22 -39.5h-66z" />
    <glyph glyph-name="macron" unicode="&#x2c9;" horiz-adv-x="683" 
d="M57 1511h569v-122h-569v122z" />
    <glyph glyph-name="breve" unicode="&#x2d8;" horiz-adv-x="683" 
d="M189 1630h107q4 -125 12 -150q14 -40 47 -40q24 0 38 24t21 166h107q0 -179 -44 -238t-120 -59q-78 0 -123 56.5t-45 205.5v35z" />
    <glyph glyph-name="dotaccent" unicode="&#x2d9;" horiz-adv-x="683" 
d="M354 1564q35 0 60 -29.5t25 -85.5q0 -57 -25 -86t-60 -29t-59.5 29t-24.5 84q0 56 25.5 86.5t58.5 30.5z" />
    <glyph glyph-name="ring" unicode="&#x2da;" horiz-adv-x="683" 
d="M352 1663q68 0 116 -48t48 -116t-48 -116t-116 -48t-116 48t-48 116t48 116t116 48zM352 1595q-40 0 -68 -28.5t-28 -68.5t28 -68.5t68 -28.5t68.5 28.5t28.5 68.5t-28.5 68.5t-68.5 28.5z" />
    <glyph glyph-name="cedilla" unicode="&#xb8;" horiz-adv-x="683" 
d="M361 12q64 -12 97 -46.5t33 -76.5q0 -50 -45.5 -89t-125.5 -39q-44 0 -108 12l23 75q20 -3 30 -3q35 0 58 17q15 12 15 30q0 16 -11 28.5t-49 28.5z" />
    <glyph glyph-name="hungarumlaut" unicode="&#x2dd;" horiz-adv-x="683" 
d="M208 1643h195l-154 -306h-114zM474 1643h195l-155 -306h-114z" />
    <glyph glyph-name="ogonek" unicode="&#x2db;" horiz-adv-x="683" 
d="M342 12l83 -63q-39 -16 -49.5 -28.5t-10.5 -28.5q0 -18 15 -30q22 -17 58 -17q10 0 30 3l23 -75q-64 -12 -108 -12q-81 0 -126 39t-45 89q0 42 32.5 76.5t97.5 46.5z" />
    <glyph glyph-name="caron" unicode="&#x2c7;" horiz-adv-x="683" 
d="M187 1630h109l58 -143l55 143h111l-68 -296h-196z" />
    <glyph glyph-name="Lslash" unicode="&#x141;" horiz-adv-x="427" 
d="M275 1007l64 64v-159l-64 -64v-631h128v-217h-348v628l-69 -69v159l69 69v843h220v-623z" />
    <glyph glyph-name="lslash" unicode="&#x142;" horiz-adv-x="320" 
d="M242 978l60 60v-135l-60 -60v-586q0 -61 13 -87t47 -43l-146 -140q-52 18 -78 57t-26 112v496l-60 -59v135l60 60v842h190v-652z" />
    <glyph glyph-name="Scaron" unicode="&#x160;" horiz-adv-x="491" 
d="M26 237q51 -22 94 -22q59 0 93.5 38t34.5 112q0 59 -13 113q-25 107 -92 277.5t-99 309.5q-18 79 -18 176q0 210 81.5 306t212.5 96q61 0 140 -25v-217q-46 22 -84 22q-56 0 -95 -46t-39 -134q0 -58 13 -114q25 -105 84 -261q74 -195 108 -349q17 -78 17 -167
q0 -176 -85.5 -270.5t-213.5 -94.5q-56 0 -139 26v224zM122 2012h109l58 -143l55 143h111l-68 -296h-196z" />
    <glyph glyph-name="scaron" unicode="&#x161;" horiz-adv-x="384" 
d="M20 208q35 -37 79 -37q40 0 65 26.5t25 74.5q0 89 -76 311q-91 267 -91 404q0 148 54.5 214.5t140.5 66.5q53 0 127 -41v-174q-39 33 -70 33t-53.5 -25t-22.5 -71q0 -85 72 -299q93 -278 93 -421q0 -146 -59.5 -214.5t-158.5 -68.5q-63 0 -125 34v187zM67 1630h109
l58 -143l55 143h111l-68 -296h-196z" />
    <glyph glyph-name="Zcaron" unicode="&#x17d;" horiz-adv-x="448" 
d="M26 1630h396l-154 -1415h154v-215h-396l155 1418h-155v212zM97 2012h109l58 -143l55 143h111l-68 -296h-196z" />
    <glyph glyph-name="zcaron" unicode="&#x17e;" horiz-adv-x="405" 
d="M28 1255h356l-157 -1109h157v-146h-362l158 1108h-152v147zM48 1630h109l58 -143l55 143h111l-68 -296h-196z" />
    <glyph glyph-name="brokenbar" unicode="&#xa6;" horiz-adv-x="533" 
d="M345 1588v-790h-157v790h157zM345 456v-790h-157v790h157z" />
    <glyph glyph-name="Eth" unicode="&#xd0;" 
d="M55 753h-55v124h55v753h65q124 0 213 -44t154 -145.5t102 -255t37 -365.5q0 -217 -38 -386.5t-111 -273.5q-54 -77 -116 -112q-84 -48 -204 -48h-102v753zM275 753v-487q33 26 47 49q34 59 50 147q24 125 24 349q0 173 -16.5 291t-49.5 187q-17 36 -55 68v-480h67v-124
h-67z" />
    <glyph glyph-name="eth" unicode="&#xf0;" horiz-adv-x="533" 
d="M503 648q-7 -276 -38 -412.5t-99 -208.5q-38 -40 -94 -40q-114 0 -169 147q-72 189 -72 502q0 295 67 470q50 132 141 158q-19 59 -50 120l-97 -60l-51 87l98 59q-31 43 -67 85l89 75q49 -43 91 -91l115 68l51 -87l-103 -63q83 -126 127 -291.5t61 -517.5zM270 1049
q-16 -20 -25 -53q-7 -24 -12 -161q-9 -219 -9 -288q0 -284 46 -343q15 17 24 46q6 20 13 169q10 223 10 291q0 287 -47 339z" />
    <glyph glyph-name="Yacute" unicode="&#xdd;" horiz-adv-x="640" 
d="M22 1630h224l75 -415l77 415h221l-190 -852v-778h-220v778zM318 2025h195l-154 -306h-114z" />
    <glyph glyph-name="yacute" unicode="&#xfd;" horiz-adv-x="512" 
d="M19 1255h189l52 -855l46 855h187l-136 -1191q-19 -161 -92 -232.5t-191 -71.5q-21 0 -44 1v182l32 -2q41 0 63.5 19.5t44.5 86.5zM254 1643h195l-154 -306h-114z" />
    <glyph glyph-name="Thorn" unicode="&#xde;" horiz-adv-x="640" 
d="M55 1630h220v-343q113 -26 168 -67q76 -56 123.5 -161t47.5 -236q0 -121 -44 -225.5t-130 -172.5q-60 -49 -165 -82v-343h-220v1630zM275 1055v-476q110 72 110 240q0 175 -110 236z" />
    <glyph glyph-name="thorn" unicode="&#xfe;" horiz-adv-x="555" 
d="M241 1630v-450q52 88 102 88q63 0 108 -77q73 -125 73 -462v-143q0 -322 -101 -480q-68 -107 -182 -119v-226h-191v1869h191zM241 1071v-849q36 8 56 50q36 75 36 281v262q0 183 -29 240q-15 29 -37 29q-13 0 -26 -13z" />
    <glyph glyph-name="multiply" unicode="&#xd7;" horiz-adv-x="1024" 
d="M227 1310l282 -364l286 364l130 -99l-313 -399l308 -391l-131 -101l-280 358l-282 -358l-128 101l305 391l-305 390z" />
    <glyph glyph-name="onesuperior" unicode="&#xb9;" horiz-adv-x="512" 
d="M372 1643v-798h-159v615h-52v16z" />
    <glyph glyph-name="twosuperior" unicode="&#xb2;" horiz-adv-x="512" 
d="M85 1606q86 37 146 37q75 0 122 -50t47 -144q0 -63 -14 -145t-76 -325h100v-131h-314q134 421 134 554q0 45 -21 68t-53 23q-37 0 -71 -24v137z" />
    <glyph glyph-name="threesuperior" unicode="&#xb3;" horiz-adv-x="512" 
d="M135 1630q47 13 95 13q81 0 131.5 -52t50.5 -139q0 -68 -31.5 -115t-90.5 -69q129 -61 129 -185q0 -104 -72 -170.5t-212 -67.5v135q60 7 86 34t26 71q0 49 -26.5 78t-85.5 37v103h15q47 0 76 32.5t29 98.5q0 52 -19.5 75t-49.5 23q-25 0 -51 -17v115z" />
    <glyph glyph-name="onehalf" unicode="&#xbd;" horiz-adv-x="1024" 
d="M392 1643v-798h-159v615h-52v16zM753 1643h90l-524 -1677h-92zM609 746q86 37 146 37q75 0 122 -50t47 -144q0 -63 -14 -145t-76 -325h100v-131h-314q134 421 134 554q0 45 -21 68t-53 23q-37 0 -71 -24v137z" />
    <glyph glyph-name="onequarter" unicode="&#xbc;" horiz-adv-x="1024" 
d="M392 1647v-798h-159v615h-52v16zM757 1643h90l-524 -1677h-92zM853 783h90v-447h72v-124h-72v-225h-153v225h-239v72zM790 507l-107 -171h107v171z" />
    <glyph glyph-name="threequarters" unicode="&#xbe;" horiz-adv-x="1024" 
d="M151 1634q47 13 95 13q81 0 131.5 -52t50.5 -139q0 -68 -31.5 -115t-90.5 -69q129 -61 129 -185q0 -104 -72 -170.5t-212 -67.5v135q60 7 86 34t26 71q0 49 -26.5 78t-85.5 37v103h15q47 0 76 32.5t29 98.5q0 52 -19.5 75t-49.5 23q-25 0 -51 -17v115zM757 1643h90
l-524 -1677h-92zM853 783h90v-447h72v-124h-72v-225h-153v225h-239v72zM790 507l-107 -171h107v171z" />
    <glyph glyph-name="Scedilla" unicode="&#x15e;" horiz-adv-x="491" 
d="M26 237q51 -22 94 -22q59 0 93.5 38t34.5 112q0 59 -13 113q-25 107 -92 277.5t-99 309.5q-18 79 -18 176q0 210 81.5 306t212.5 96q61 0 140 -25v-217q-46 22 -84 22q-56 0 -95 -46t-39 -134q0 -58 13 -114q25 -105 84 -261q74 -195 108 -349q17 -78 17 -167
q0 -176 -85.5 -270.5t-213.5 -94.5q-56 0 -139 26v224zM265 12q64 -12 97 -46.5t33 -76.5q0 -50 -45.5 -89t-125.5 -39q-44 0 -108 12l23 75q20 -3 30 -3q35 0 58 17q15 12 15 30q0 16 -11 28.5t-49 28.5z" />
    <glyph glyph-name="scedilla" unicode="&#x15f;" horiz-adv-x="384" 
d="M20 208q35 -37 79 -37q40 0 65 26.5t25 74.5q0 89 -76 311q-91 267 -91 404q0 148 54.5 214.5t140.5 66.5q53 0 127 -41v-174q-39 33 -70 33t-53.5 -25t-22.5 -71q0 -85 72 -299q93 -278 93 -421q0 -146 -59.5 -214.5t-158.5 -68.5q-63 0 -125 34v187zM211 12
q64 -12 97 -46.5t33 -76.5q0 -50 -45.5 -89t-125.5 -39q-44 0 -108 12l23 75q20 -3 30 -3q35 0 58 17q15 12 15 30q0 16 -11 28.5t-49 28.5z" />
    <glyph glyph-name="Cacute" unicode="&#x106;" horiz-adv-x="533" 
d="M509 22q-42 -35 -103 -35q-168 0 -268.5 221t-100.5 618q0 444 148 671q96 146 216 146q55 0 108 -31v-207q-34 18 -65 18q-61 0 -104 -76q-74 -132 -74 -494q0 -382 49.5 -507.5t131.5 -125.5q31 0 62 20v-218zM340 2025h195l-154 -306h-114z" />
    <glyph glyph-name="cacute" unicode="&#x107;" horiz-adv-x="405" 
d="M386 20q-12 -10 -44 -21.5t-57 -11.5q-61 0 -115.5 41.5t-83.5 126.5q-55 157 -55 397v183q0 299 96 437q67 96 174 96q32 0 85 -13v-194l-5 3q-22 14 -44 14q-45 0 -73 -48q-42 -70 -42 -295v-167q0 -276 37 -345q24 -44 62 -44q30 0 65 25v-184zM260 1643h195
l-154 -306h-114z" />
    <glyph glyph-name="Ccaron" unicode="&#x10c;" horiz-adv-x="533" 
d="M509 22q-42 -35 -103 -35q-168 0 -268.5 221t-100.5 618q0 444 148 671q96 146 216 146q55 0 108 -31v-207q-34 18 -65 18q-61 0 -104 -76q-74 -132 -74 -494q0 -382 49.5 -507.5t131.5 -125.5q31 0 62 20v-218zM142 2012h109l58 -143l55 143h111l-68 -296h-196z" />
    <glyph glyph-name="ccaron" unicode="&#x10d;" horiz-adv-x="405" 
d="M386 20q-12 -10 -44 -21.5t-57 -11.5q-61 0 -115.5 41.5t-83.5 126.5q-55 157 -55 397v183q0 299 96 437q67 96 174 96q32 0 85 -13v-194l-5 3q-22 14 -44 14q-45 0 -73 -48q-42 -70 -42 -295v-167q0 -276 37 -345q24 -44 62 -44q30 0 65 25v-184zM48 1630h109l58 -143
l55 143h111l-68 -296h-196z" />
    <glyph glyph-name="uni00AF" unicode="&#xaf;" horiz-adv-x="1024" 
d="M-12 1908v129h1048v-129h-1048z" />
    <glyph glyph-name="uni00B7" unicode="&#xb7;" horiz-adv-x="491" 
d="M248 941q68 0 116 -48t48 -116q0 -69 -48 -117t-116 -48q-69 0 -117 48t-48 117q0 68 48 116t117 48z" />
    <glyph glyph-name="glyph254" horiz-adv-x="512" 
d="M341 1643h90v-447h72v-124h-72v-225h-153v225h-239v72zM278 1367l-107 -171h107v171z" />
    <glyph glyph-name="dcroat" unicode="&#x111;" horiz-adv-x="576" 
d="M504 1499h46v-100h-46v-1096q0 -108 46 -154l-110 -162q-75 23 -103 111q-45 -71 -70.5 -91t-53.5 -20q-68 0 -114 74q-68 111 -68 404v224q0 320 100 469q69 103 183 110v131h-142v100h142v131h190v-131zM314 1038q-37 -11 -57 -53q-35 -72 -35 -234v-260
q0 -231 27 -290q13 -27 33 -27q11 0 20 5.5t12 11.5v847z" />
    <glyph glyph-name="Abreve" unicode="&#x102;" horiz-adv-x="640" 
d="M207 1643h239l172 -1643h-222l-11 293h-122l-22 -293h-219zM331 1373h-18q-10 -342 -15 -438l-23 -429h94l-15 331zM161 2015h107q4 -125 12 -150q14 -40 47 -40q24 0 38 24t21 166h107q0 -179 -44 -238t-120 -59q-78 0 -123 56.5t-45 205.5v35z" />
    <glyph glyph-name="abreve" unicode="&#x103;" horiz-adv-x="576" 
d="M341 95q-63 -107 -130 -107t-111 76q-69 119 -69 482v151q0 295 125 452q96 120 259 120h89v-941q0 -87 12.5 -122.5t36.5 -56.5l-110 -161q-34 10 -56 31.5t-46 75.5zM314 1028q-47 -25 -69.5 -83.5t-22.5 -234.5v-230q0 -219 30 -283q13 -27 32 -27q20 0 30 13v845z
M141 1630h107q4 -125 12 -150q14 -40 47 -40q24 0 38 24t21 166h107q0 -179 -44 -238t-120 -59q-78 0 -123 56.5t-45 205.5v35z" />
    <glyph glyph-name="Aogonek" unicode="&#x104;" horiz-adv-x="641" 
d="M459 0l67 -51q-61 -24 -61 -58q0 -16 20 -31.5t54 -15.5q2 0 30 4l23 -75q-65 -13 -109 -13q-74 0 -122 35.5t-48 93.5q0 78 86 111h-4l-10 293h-123l-20 -293h-219l184 1642h239l172 -1642h-159zM332 1372h-19q-8 -359 -39 -866h95z" />
    <glyph glyph-name="aogonek" unicode="&#x105;" horiz-adv-x="575" 
d="M455 4l73 -55q-61 -24 -61 -58q0 -15 20 -31t54 -16q2 0 30 4l23 -75q-65 -13 -109 -13q-74 0 -122 35.5t-48 93.5q0 81 93 113q-39 22 -66 92q-64 -106 -131 -106q-89 0 -134.5 130t-45.5 427v151q0 262 98.5 417t286.5 155h88v-940q0 -89 12.5 -124.5t36.5 -56.5z
M313 1026q-48 -26 -70 -83.5t-22 -233.5v-230q0 -309 64 -309q19 0 28 12v844z" />
    <glyph glyph-name="Dcaron" unicode="&#x10e;" 
d="M55 1630h65q124 0 213 -44t154 -145.5t102 -255t37 -365.5q0 -217 -38 -386.5t-111 -273.5q-54 -77 -116 -112q-84 -48 -204 -48h-102v1630zM275 1357v-1091q36 27 52 55q33 58 51 161.5t18 337.5q0 192 -20 324q-14 96 -47 154q-17 31 -54 59zM143 2014h109l58 -143
l55 143h111l-68 -296h-196z" />
    <glyph glyph-name="dcaron" unicode="&#x10f;" horiz-adv-x="793" 
d="M314 1631h190v-1327q0 -108 46 -154l-110 -162q-75 23 -103 111q-45 -71 -70.5 -91t-53.5 -20q-68 0 -114 74q-68 111 -68 404v224q0 320 100 469q69 103 183 110v362zM314 1039q-37 -11 -57 -53q-35 -72 -35 -234v-260q0 -231 27 -290q13 -27 33 -27q11 0 20 5.5
t12 11.5v847zM645 1439q-41 13 -59.5 41.5t-18.5 56.5q0 37 28 64.5t69 27.5q44 0 70 -28.5t26 -79.5q0 -169 -193 -263v70q61 41 78 111z" />
    <glyph glyph-name="Dcroat" unicode="&#x110;" 
d="M55 753h-55v124h55v753h65q124 0 213 -44t154 -145.5t102 -255t37 -365.5q0 -217 -38 -386.5t-111 -273.5q-54 -77 -116 -112q-84 -48 -204 -48h-102v753zM275 753v-487q33 26 47 49q34 59 50 147q24 125 24 349q0 173 -16.5 291t-49.5 187q-17 36 -55 68v-480h67v-124
h-67z" />
    <glyph glyph-name="Eogonek" unicode="&#x118;" horiz-adv-x="449" 
d="M293 0l67 -51q-61 -24 -61 -58q0 -16 20.5 -31.5t53.5 -15.5q2 0 30 4l23 -75q-65 -13 -109 -13q-74 0 -122 35.5t-48 93.5q0 78 86 111h-180v1630h375v-217h-154v-514h154v-211h-154v-475h154v-213h-135z" />
    <glyph glyph-name="eogonek" unicode="&#x119;" horiz-adv-x="532" 
d="M410 -12l51 -39q-62 -24 -62 -58q0 -15 20 -31t54 -16q2 0 31 4l22 -75q-64 -13 -108 -13q-75 0 -122.5 35.5t-47.5 93.5q0 69 74 107q-136 36 -213.5 178.5t-77.5 448.5v145q0 245 62 372.5t175 127.5q116 0 175 -99.5t59 -250.5q0 -335 -269 -420q0 -140 51.5 -222.5
t127.5 -82.5q27 0 80 24v-211q-38 -15 -82 -18zM272 1069q-49 -74 -49 -203v-161q36 14 63 55.5t27 152.5q0 109 -41 156z" />
    <glyph glyph-name="Ecaron" unicode="&#x11a;" horiz-adv-x="448" 
d="M54 1630h375v-216h-155v-514h155v-212h-155v-474h155v-214h-375v1630zM77 2014h109l58 -143l55 143h111l-68 -296h-196z" />
    <glyph glyph-name="ecaron" unicode="&#x11b;" horiz-adv-x="533" 
d="M492 7q-45 -19 -103 -19q-144 0 -251 140t-107 496v144q0 288 86 415q58 86 152 86q116 0 174.5 -102.5t58.5 -247.5q0 -174 -70.5 -277t-198.5 -143q2 -157 67 -244q47 -62 111 -62q29 0 81 25v-211zM273 1071q-26 -40 -34 -70q-15 -57 -15 -133v-163q43 19 66.5 66
t23.5 143q0 105 -41 157zM119 1629h109l58 -143l55 143h111l-68 -296h-196z" />
    <glyph glyph-name="Lacute" unicode="&#x139;" horiz-adv-x="427" 
d="M55 1630h220v-1413h128v-217h-348v1630zM198 2024h195l-154 -306h-114z" />
    <glyph glyph-name="lacute" unicode="&#x13a;" horiz-adv-x="320" 
d="M52 1631h191v-1373q0 -61 13 -87t46 -43l-146 -140q-52 18 -78 57t-26 112v1474zM158 2024h195l-154 -306h-114z" />
    <glyph glyph-name="Lcaron" unicode="&#x13d;" horiz-adv-x="427" 
d="M55 1630h220v-1413h128v-217h-348v1630zM49 2014h109l58 -143l55 143h111l-68 -296h-196z" />
    <glyph glyph-name="lcaron" unicode="&#x13e;" horiz-adv-x="526" 
d="M51 1631h191v-1373q0 -61 13 -87t46 -43l-146 -140q-52 18 -78 57t-26 112v1474zM387 1439q-41 13 -59.5 41.5t-18.5 56.5q0 37 28 64.5t69 27.5q44 0 70 -28.5t26 -79.5q0 -169 -193 -263v70q61 41 78 111z" />
    <glyph glyph-name="Nacute" unicode="&#x143;" 
d="M59 1630h201l137 -850h13l-25 850h218v-1630h-193l-150 904h-8l24 -904h-217v1630zM319 2024h195l-154 -306h-114z" />
    <glyph glyph-name="nacute" unicode="&#x144;" horiz-adv-x="576" 
d="M137 1268q59 -19 96 -88q44 55 72 71.5t66 16.5q64 0 108.5 -54.5t44.5 -165.5v-1048h-191v1030q0 23 -13 37t-31 14q-11 0 -22 -8t-21 -25v-1048h-191v1030q0 73 -38 101zM295 1643h195l-154 -306h-114z" />
    <glyph glyph-name="Ncaron" unicode="&#x147;" 
d="M59 1630h201l137 -850h13l-25 850h218v-1630h-193l-150 904h-8l24 -904h-217v1630zM166 2014h109l58 -143l55 143h111l-68 -296h-196z" />
    <glyph glyph-name="ncaron" unicode="&#x148;" horiz-adv-x="576" 
d="M137 1268q59 -19 96 -88q44 55 72 71.5t66 16.5q64 0 108.5 -54.5t44.5 -165.5v-1048h-191v1030q0 23 -13 37t-31 14q-11 0 -22 -8t-21 -25v-1048h-191v1030q0 73 -38 101zM126 1629h109l58 -143l55 143h111l-68 -296h-196z" />
    <glyph glyph-name="Ohungarumlaut" unicode="&#x150;" 
d="M37 794q0 472 101 685q78 164 194 164q54 0 106 -40t96 -143.5t67 -277t23 -370.5q0 -498 -121 -704q-71 -121 -167 -121q-135 0 -209 192q-90 237 -90 615zM332 1392q-26 -44 -39 -96.5t-19 -188.5q-9 -214 -9 -337q0 -277 22 -399q14 -78 45 -137q29 58 41 111.5
t16 188.5q7 250 7 365q0 257 -21 368q-14 74 -43 125zM198 2024h195l-154 -306h-114zM464 2024h195l-155 -306h-114z" />
    <glyph glyph-name="ohungarumlaut" unicode="&#x151;" horiz-adv-x="533" 
d="M270 1269q83 0 141 -96q95 -158 95 -545q0 -385 -96 -545q-57 -95 -140 -95t-141 96q-95 157 -95 544q0 386 96 545q57 96 140 96zM270 1050q-16 -20 -25 -53q-7 -24 -13 -161q-9 -219 -9 -288q0 -284 47 -343q15 17 24 46q6 20 13 169q10 223 10 291q0 287 -47 339z
M144 1643h195l-154 -306h-114zM410 1643h195l-155 -306h-114z" />
    <glyph glyph-name="Racute" unicode="&#x154;" horiz-adv-x="683" 
d="M55 1630h118q207 0 322.5 -119t115.5 -333q0 -121 -47 -215q-33 -67 -103 -128q51 -56 75 -106q50 -106 79.5 -272t50.5 -457h-222q-14 364 -66 534q-39 128 -103 180v-714h-220v1630zM293 1396v-470q53 23 83.5 85.5t30.5 149.5q0 91 -30 151.5t-84 83.5zM329 2024h195
l-154 -306h-114z" />
    <glyph glyph-name="racute" unicode="&#x155;" horiz-adv-x="427" 
d="M243 1087q11 17 22 50q31 85 72 112q28 19 81 19v-237q-73 -19 -115 -74q-60 -79 -60 -134v-823h-191v1031q0 60 -43 97l115 140q58 -22 82.5 -56.5t36.5 -124.5zM221 1643h195l-154 -306h-114z" />
    <glyph glyph-name="Rcaron" unicode="&#x158;" horiz-adv-x="683" 
d="M55 1630h118q207 0 322.5 -119t115.5 -333q0 -121 -47 -215q-33 -67 -103 -128q51 -56 75 -106q50 -106 79.5 -272t50.5 -457h-222q-14 364 -66 534q-39 128 -103 180v-714h-220v1630zM293 1396v-470q53 23 83.5 85.5t30.5 149.5q0 91 -30 151.5t-84 83.5zM178 2014h109
l58 -143l55 143h111l-68 -296h-196z" />
    <glyph glyph-name="rcaron" unicode="&#x159;" horiz-adv-x="427" 
d="M243 1087q11 17 22 50q31 85 72 112q28 19 81 19v-237q-73 -19 -115 -74q-60 -79 -60 -134v-823h-191v1031q0 60 -43 97l115 140q58 -22 82.5 -56.5t36.5 -124.5zM58 1629h109l58 -143l55 143h111l-68 -296h-196z" />
    <glyph glyph-name="Sacute" unicode="&#x15a;" horiz-adv-x="491" 
d="M26 237q51 -22 94 -22q59 0 93.5 38t34.5 112q0 59 -13 113q-25 107 -92 277.5t-99 309.5q-18 79 -18 176q0 210 81.5 306t212.5 96q61 0 140 -25v-217q-46 22 -84 22q-56 0 -95 -46t-39 -134q0 -58 13 -114q25 -105 84 -261q74 -195 108 -349q17 -78 17 -167
q0 -176 -85.5 -270.5t-213.5 -94.5q-56 0 -139 26v224zM271 2024h195l-154 -306h-114z" />
    <glyph glyph-name="sacute" unicode="&#x15b;" horiz-adv-x="384" 
d="M20 209q35 -37 79 -37q40 0 65 26.5t25 74.5q0 89 -76 311q-91 267 -91 404q0 148 54.5 214.5t140.5 66.5q53 0 127 -41v-174q-39 33 -70 33t-53.5 -25t-22.5 -71q0 -85 72 -299q93 -278 93 -421q0 -146 -59.5 -214.5t-158.5 -68.5q-63 0 -125 34v187zM208 1643h195
l-154 -306h-114z" />
    <glyph glyph-name="Tcommaaccent" unicode="&#x162;" horiz-adv-x="576" 
d="M24 1630h529v-213h-154v-1417h-220v1417h-155v213zM274 -289q-41 13 -59.5 41.5t-18.5 56.5q0 37 28 64.5t69 27.5q44 0 70 -28.5t26 -79.5q0 -169 -193 -263v70q61 41 78 111z" />
    <glyph glyph-name="tcommaaccent" unicode="&#x163;" horiz-adv-x="427" 
d="M250 1457h55v-202h91v-164h-91v-860q0 -30 15 -46.5t35 -16.5q18 0 41 15v-162q-50 -34 -100 -34q-81 0 -131 56.5t-50 159.5v888h-97v57q85 86 232 309zM240 -289q-41 13 -59.5 41.5t-18.5 56.5q0 37 28 64.5t69 27.5q44 0 70 -28.5t26 -79.5q0 -169 -193 -263v70
q61 41 78 111z" />
    <glyph glyph-name="Tcaron" unicode="&#x164;" horiz-adv-x="576" 
d="M24 1630h529v-213h-154v-1417h-220v1417h-155v213zM118 2014h109l58 -143l55 143h111l-68 -296h-196z" />
    <glyph glyph-name="tcaron" unicode="&#x165;" horiz-adv-x="707" 
d="M250 1457h55v-202h91v-164h-91v-860q0 -30 15 -46.5t35 -16.5q18 0 41 15v-162q-50 -34 -100 -34q-81 0 -131 56.5t-50 159.5v888h-97v57q85 86 232 309zM553 1439q-41 13 -59.5 41.5t-18.5 56.5q0 37 28 64.5t69 27.5q44 0 70 -28.5t26 -79.5q0 -169 -193 -263v70
q61 41 78 111z" />
    <glyph glyph-name="Uring" unicode="&#x16e;" 
d="M59 1631h220v-1188q0 -149 55 -200q48 64 48 180v1208h221v-1188q0 -224 -99 -356q-75 -99 -170 -99q-65 0 -130.5 50.5t-99.5 147.5q-45 132 -45 257v1188zM330 2046q68 0 116 -48t48 -116t-48 -116t-116 -48t-116 48t-48 116t48 116t116 48zM330 1978q-40 0 -68 -28.5
t-28 -68.5t28 -68.5t68 -28.5t68.5 28.5t28.5 68.5t-28.5 68.5t-68.5 28.5z" />
    <glyph glyph-name="uring" unicode="&#x16f;" horiz-adv-x="576" 
d="M52 1256h191v-1026q0 -27 10.5 -39.5t27.5 -12.5q20 0 34.5 14.5t14.5 31.5v1032h191v-1053q0 -38 37 -77l-116 -138q-40 14 -62.5 34.5t-35.5 55.5q-42 -54 -73 -72t-70 -18q-63 0 -97 40q-52 63 -52 147v1081zM278 1663q68 0 116 -48t48 -116t-48 -116t-116 -48
t-116 48t-48 116t48 116t116 48zM278 1595q-40 0 -68 -28.5t-28 -68.5t28 -68.5t68 -28.5t68.5 28.5t28.5 68.5t-28.5 68.5t-68.5 28.5z" />
    <glyph glyph-name="Uhungarumlaut" unicode="&#x170;" 
d="M59 1631h220v-1188q0 -149 55 -200q48 64 48 180v1208h221v-1188q0 -224 -99 -356q-75 -99 -170 -99q-65 0 -130.5 50.5t-99.5 147.5q-45 132 -45 257v1188zM188 2024h195l-154 -306h-114zM454 2024h195l-155 -306h-114z" />
    <glyph glyph-name="uhungarumlaut" unicode="&#x171;" horiz-adv-x="576" 
d="M52 1256h191v-1026q0 -27 10.5 -39.5t27.5 -12.5q20 0 34.5 14.5t14.5 31.5v1032h191v-1053q0 -38 37 -77l-116 -138q-40 14 -62.5 34.5t-35.5 55.5q-42 -54 -73 -72t-70 -18q-63 0 -97 40q-52 63 -52 147v1081zM142 1643h195l-154 -306h-114zM408 1643h195l-155 -306
h-114z" />
    <glyph glyph-name="Zacute" unicode="&#x179;" horiz-adv-x="448" 
d="M26 1630h396l-154 -1415h154v-215h-396l155 1418h-155v212zM222 2024h195l-154 -306h-114z" />
    <glyph glyph-name="zacute" unicode="&#x17a;" horiz-adv-x="405" 
d="M28 1255h356l-157 -1109h157v-146h-362l158 1108h-152v147zM207 1643h195l-154 -306h-114z" />
    <glyph glyph-name="Zdotaccent" unicode="&#x17b;" horiz-adv-x="448" 
d="M26 1630h396l-154 -1415h154v-215h-396l155 1418h-155v212zM230 1946q35 0 60 -29.5t25 -85.5q0 -57 -25 -86t-60 -29t-59.5 29t-24.5 84q0 56 25.5 86.5t58.5 30.5z" />
    <glyph glyph-name="zdotaccent" unicode="&#x17c;" horiz-adv-x="405" 
d="M28 1255h356l-157 -1109h157v-146h-362l158 1108h-152v147zM208 1564q35 0 60 -29.5t25 -85.5q0 -57 -25 -86t-60 -29t-59.5 29t-24.5 84q0 56 25.5 86.5t58.5 30.5z" />
    <glyph glyph-name="commaaccent" horiz-adv-x="276" 
d="M131 -184q-41 13 -59.5 41.5t-18.5 56.5q0 37 28 64.5t69 27.5q44 0 70 -28.5t26 -79.5q0 -169 -193 -263v70q61 41 78 111z" />
    <glyph glyph-name="currency" unicode="&#xa4;" horiz-adv-x="1024" 
d="M176 1301l120 -128q55 36 104.5 52t114.5 16q56 0 99 -13t116 -55l113 128l120 -109l-126 -135q36 -77 46.5 -121.5t10.5 -117.5q0 -72 -10.5 -117t-46.5 -119l126 -137l-120 -107l-113 126q-56 -37 -103.5 -53t-107.5 -16q-63 0 -118.5 17.5t-104.5 51.5l-115 -126
l-120 107l129 137q-58 112 -58 233q0 131 58 237l-129 140zM288 822q0 -125 65.5 -196.5t162.5 -71.5q93 0 157 71t64 192q0 124 -64.5 195t-156.5 71q-95 0 -161.5 -71.5t-66.5 -189.5z" />
    </font>
</defs>
</svg>
